<?xml version="1.0" standalone="no"?> 
<!DOCTYPE svg PUBLIC "-//W3C//DTD SVG 1.1//EN" "http://www.w3.org/Graphics/SVG/1.1/DTD/svg11.dtd" >
<svg xmlns="http://www.w3.org/2000/svg">
<defs>
  <font id="acl-icon-font" horiz-adv-x="500">
    <font-face font-family="acl-icon-font"
      units-per-em="480" ascent="420"
      descent="60" />
    <missing-glyph horiz-adv-x="0" />
    <glyph glyph-name="001.lightbulb__idea"
      unicode="&#xEA01;"
      horiz-adv-x="480" d="M336.2975 349.7440000000001C310.9005 375.17 277.0375 390 238.9415 390C200.8465 390 166.9835 375.17 141.5865 349.7440000000001C116.1895 324.32 101.3745 290.42 101.3745 252.28C101.3745 228.975 107.7245 207.787 116.1895 188.72C126.7715 169.65 139.4695 159.056 145.8195 152.7C152.1695 146.344 156.4015 142.106 156.4015 129.394V99.731C156.4015 89.138 162.7515 84.901 171.2165 84.901H308.7845000000001C317.2495 84.901 323.5985000000001 91.257 323.5985000000001 99.731V129.395C323.5985000000001 135.751 327.8315000000001 146.345 334.1805000000001 150.582C334.1805000000001 150.582 355.3445000000001 169.652 363.8105000000001 188.722C374.3925000000001 207.789 378.6255000000001 228.977 378.6255000000001 252.282C376.5105 290.4220000000001 361.6955000000001 324.322 336.2985000000001 349.746zM338.4135 201.431C329.9465 186.601 317.2485 171.771 317.2485 171.771C310.8985 167.531 304.5485 161.176 302.4335 159.057C300.3165 156.937 296.0835 152.701 296.0835 148.463V127.276C296.0835 116.682 289.7334999999999 112.446 281.2694999999999 112.446H253.7554999999999V237.45C253.7554999999999 243.806 247.4054999999999 250.163 238.9404999999999 250.163S224.1254999999999 243.806 224.1254999999999 237.45V112.444H196.6145C188.1475 112.444 181.7985 112.444 181.7985 127.274V148.464C181.7985 156.937 177.5655 159.0559999999999 175.4485 159.0559999999999C173.3325 161.1759999999999 164.8685 167.5309999999999 160.6345 173.886C160.6345 173.886 145.8195 186.5999999999999 139.4705 201.4309999999999C131.0045 216.2629999999999 126.7705 233.213 126.7705 252.2809999999999C126.7705 281.945 137.3535 309.488 158.5175 330.676C179.6825 351.863 207.1955 362.4559999999999 236.8255 362.4559999999999C266.4555 362.4559999999999 293.9695000000001 351.863 315.1335 330.676C336.2985000000001 309.488 346.8805000000001 281.9459999999999 346.8805000000001 252.282C348.9965 235.332 344.7635 218.3819999999999 338.4145 201.4319999999999zM308.7845000000001 55.238H171.2145C162.7485 55.238 156.3995 48.881 156.3995 40.406C156.3995 31.931 162.7495 25.576 171.2145 25.576H308.7845000000001C317.2495 25.576 323.5985000000001 31.931 323.5985000000001 40.406C321.4825000000001 48.881 315.1325000000001 55.238 308.7835000000001 55.238zM281.2705 0.15H198.7305C190.2645 0.15 183.9145 -6.206 183.9145 -14.68C183.9145 -23.156 190.2645 -29.512 198.7295 -29.512H281.2695C289.7355 -29.512 296.0855 -23.156 296.0855 -14.682C293.9695 -6.206 287.6205 0.15 281.2715 0.15z" />
    <glyph glyph-name="002.life-buoy__support"
      unicode="&#xEA02;"
      horiz-adv-x="480" d="M240 390C124.21 390 30 295.7630000000001 30 180C30 64.185 124.21 -30 240 -30C355.815 -30 450 64.185 450 180C450 295.7630000000001 355.815 390 240 390zM311.53 349.286L291.082 300.9340000000001C258.742 314.584 221.257 314.584 188.917 300.9340000000001L168.47 349.286C213.803 368.476 266.197 368.476 311.53 349.286zM119.04 128.89L70.687 108.416C61.108 131.096 56.25 155.194 56.25 180C56.25 204.806 61.106 228.85 70.688 251.53L119.04 231.056C112.215 214.912 108.75 197.746 108.75 180C108.75 162.255 112.215 145.035 119.04 128.89zM240 -3.75C215.194 -3.75 191.123 1.08 168.47 10.714L188.917 59.066C221.257 45.364 258.743 45.364 291.082 59.066L311.532 10.714C288.85 1.08 264.805 -3.75 240 -3.75zM240 75C182.093 75 135 122.066 135 180C135 237.88 182.093 285 240 285S345 237.88 345 180C345 122.066 297.907 75 240 75zM360.9340000000001 128.89C367.784 145.035 371.25 162.255 371.25 180C371.25 197.745 367.7850000000001 214.912 360.9340000000001 231.056L409.286 251.531C418.894 228.851 423.75 204.807 423.75 180.001C423.75 155.195 418.894 131.097 409.286 108.417L360.9340000000001 128.892z" />
    <glyph glyph-name="003.envelope__mail__open-mail"
      unicode="&#xEA03;"
      horiz-adv-x="480" d="M449.498 226.875C449.498 231.471 447.2620000000001 235.935 443.58 238.562L248.548 381.034C243.418 384.71 236.448 384.71 231.32 381.034L36.288 238.562C32.475 235.804 30.37 231.472 30.37 226.875V-9.615C30.37 -17.625 36.946 -24.191 44.968 -24.191H435.032C438.8460000000001 -24.191 442.66 -22.616 445.29 -19.859C448.052 -17.1010000000001 449.63 -13.425 449.63 -9.617L449.498 226.873zM240 351.225L420.434 219.522V202.057L296.55 113.03L395.315 50.13C402.155 45.797 404.127 36.868 399.918 30.04C397.156 25.707 392.422 23.212 387.556 23.212C384.926 23.212 382.164 23.869 379.796 25.4440000000001L240 113.16L100.598 25.444C98.23 23.869 95.468 23.212 92.838 23.212C87.973 23.212 83.238 25.576 80.476 30.04C76.136 36.8679999999999 78.241 45.797 85.079 50.1299999999999L183.581 113.0299999999999L59.433 202.1899999999999V219.6529999999999L240 351.226z" />
    <glyph glyph-name="004.check__done__tick"
      unicode="&#xEA04;"
      horiz-adv-x="480" d="M177.062 158.395L71.958 235.665L30 190.383L182.463 12.58L206.143 38.335L450 301.718L407.21 347L177.063 158.395z" />
    <glyph glyph-name="005.copy__duplicate__two-files"
      unicode="&#xEA05;"
      horiz-adv-x="480" d="M350.478 390H148.088V311.25H43.046V-30H331.912V48.75H436.954V303.56L350.478 390zM358.1720000000001 345.19L392.127 311.25H358.173V345.19zM305.6520000000001 -3.75H69.306V285H226.87V206.25H305.6500000000001V-3.75zM253.129 232.5V266.44L287.084 232.5H253.128zM410.693 75H331.913V224.81L245.436 311.25H174.349V363.75H331.912V285H410.692V75z" />
    <glyph glyph-name="006.image__placeholder-image__graphic"
      unicode="&#xEA06;"
      horiz-adv-x="480" d="M30 3.316H450V357H30V3.316zM65 317.702H415V42.614H65V317.702zM169.242 183.18C193.646 183.18 213.394 202.987 213.394 227.42C213.394 251.825 193.646 271.6020000000001 169.242 271.6020000000001C144.779 271.6020000000001 124.972 251.8250000000001 124.972 227.4220000000001C124.972 202.987 144.779 183.182 169.242 183.182M393.125 184.38L344.615 279.915L278.8330000000001 125.491L240 168.587S186.222 146.907 168.52 113.654C140.285 130.28 124.972 113.654 124.972 113.654L86.875 63.776H393.125V184.38" />
    <glyph glyph-name="007.edit-alt__pencil__write__draw"
      unicode="&#xEA07;"
      horiz-adv-x="480" d="M30 -30H161.25L30 101.25V-30M279.926 294.1600000000001L242.81 331.306L64.86 153.355L102.03 116.239L279.926 294.159M298.51 275.603L120.537 97.68L157.707 60.536L335.63 238.486L298.51 275.603M176.265 42.004L213.383 4.86L391.305 182.782L354.187 219.9L176.265 42.004M434.618 300.356L360.382 374.616C339.9340000000001 395.1190000000001 306.649 395.1190000000001 286.147 374.618L267.589 356.058L416.0590000000001 207.563L434.617 226.121A52.517 52.517 0 0 1 450 263.24A52.517 52.517 0 0 1 434.618 300.356" />
    <glyph glyph-name="008.script__scroll__paper"
      unicode="&#xEA08;"
      horiz-adv-x="480" d="M433.389 374.414C429.5610000000001 377.969 424.024 381.454 416.779 384.874C409.531 388.29 400.166 390 388.681 390H202.881C187.021 390 172.666 387.266 159.814 381.7970000000001C146.961 376.327 136.092 369.424 127.206 361.084C118.319 352.7440000000001 111.551 343.652 106.903 333.8090000000001C102.253 323.964 99.929 314.6670000000001 99.929 305.9170000000001V109.862C99.929 106.854 98.972 102.958 97.059 98.172C95.1439999999999 93.388 92.6829999999999 87.987 89.675 81.972H85.985C67.937 81.972 54.265 76.092 44.9679999999999 64.335C35.674 52.578 31.026 39.726 31.026 25.78C31.026 11.836 35.674 -0.947 44.971 -12.568C54.268 -24.19 67.941 -30 85.986 -30H292.296C304.6 -30 314.3760000000001 -22.822 321.622 -8.467C328.868 5.889 334.4050000000001 21.816 338.2320000000001 39.316C342.062 56.816 344.5220000000001 72.881 345.6160000000001 87.5100000000001C346.7100000000001 102.14 347.2560000000001 109.59 347.2560000000001 109.8630000000001V278.027H388.682C407.276 278.027 421.9720000000001 284.317 432.774 296.895C443.574 309.473 448.974 323.008 448.974 337.5C448.974 344.61 447.608 351.31 444.874 357.598C442.139 363.888 438.3110000000001 369.492 433.389 374.414zM319.776 315.352V109.863C319.776 100.566 318.886 89.766 317.11 77.461C315.3330000000001 65.157 313.077 53.331 310.3420000000001 41.983C307.6080000000001 30.636 304.6 20.793 301.319 12.453C298.0390000000001 4.113 294.8930000000001 -0.741 291.885 -2.107H85.986C82.432 -2.107 79.288 -1.562 76.553 -0.467C73.819 0.626 71.358 1.9929999999999 69.171 3.633C65.616 6.368 62.951 9.718 61.171 13.683C59.395 17.648 58.506 21.681 58.506 25.783C58.506 30.978 59.806 36.036 62.403 40.958C65.001 45.8800000000001 69.307 49.435 75.323 51.622A56.092 56.092 0 0 0 80.45 53.059A24.55 24.55 0 0 0 85.987 53.674H264.817C268.644 53.674 271.8570000000001 55.0410000000001 274.455 57.7740000000001C277.052 60.5100000000001 278.351 63.9280000000001 278.351 68.0290000000001C278.351 71.857 277.051 75.1390000000001 274.455 77.8730000000001C271.8570000000001 80.6080000000001 268.6450000000001 81.9760000000001 264.815 81.9760000000001H120.031C122.218 87.1710000000001 123.996 92.0240000000001 125.363 96.5360000000001C126.73 101.0480000000001 127.413 105.491 127.413 109.866V305.918C127.413 315.488 133.908 327.178 146.896 340.986C159.883 354.796 178.546 361.699 202.881 361.699H325.5180000000001C321.963 354.589 320.048 346.933 319.776 338.7290000000001C319.503 330.526 319.503 322.733 319.776 315.351zM412.8810000000001 315.762C410.694 313.574 407.6180000000001 311.387 403.653 309.199C399.6880000000001 307.011 394.6980000000001 305.9170000000001 388.683 305.9170000000001H347.2560000000001V316.171C346.983 323.281 347.0510000000001 330.4580000000001 347.4620000000001 337.704C347.8720000000002 344.95 349.8540000000001 350.487 353.4090000000001 354.314C355.8690000000001 356.776 359.3560000000001 358.622 363.8690000000001 359.854C368.379 361.084 373.7790000000001 361.698 380.069 361.698H388.682C398.7990000000001 361.698 406.7970000000001 359.5780000000001 412.676 355.3400000000001C418.556 351.1 421.4960000000001 345.154 421.4960000000001 337.498C421.4960000000001 333.67 420.743 329.842 419.2390000000001 326.014A33.104 33.104 0 0 0 412.8810000000001 315.76z" />
    <glyph glyph-name="009.chart-arrow"
      unicode="&#xEA09;"
      horiz-adv-x="480" d="M416.367 346.523H252.715V375.233C252.715 379.336 251.348 382.823 248.613 385.693C245.879 388.563 242.461 390 238.36 390C234.258 390 230.772 388.564 227.9 385.693C225.03 382.823 223.594 379.336 223.594 375.233V346.523H63.633V104.53H173.145L130.488 -6.62C128.574 -10.996 128.574 -15.37 130.488 -19.746C132.403 -24.121 135.684 -27.129 140.332 -28.77C141.152 -29.316 142.109 -29.658 143.202 -29.795A26.43 26.43 0 0 1 146.484 -29.9999999999999C149.764 -29.9999999999999 152.9090000000001 -29.0429999999999 155.917 -27.1299999999999C158.925 -25.2149999999999 161.112 -22.48 162.48 -18.9259999999999L210.058 104.5310000000001H266.248L313.828 -18.925C315.195 -22.4789999999999 317.382 -25.215 320.39 -27.1279999999999C323.3979999999999 -29.0409999999999 326.5419999999999 -29.9979999999999 329.823 -29.9979999999999A26.43 26.43 0 0 1 333.106 -29.7929999999999C334.1990000000001 -29.6559999999999 335.156 -29.3129999999999 335.976 -28.768C340.352 -27.128 343.496 -24.118 345.4100000000001 -19.744C347.3240000000001 -15.369 347.4600000000001 -10.994 345.8200000000001 -6.619L302.753 104.53H416.3670000000001V346.524zM381.914 138.983H98.087V312.48H381.9129999999999V138.984zM135.001 164.823L213.751 217.733L233.029 189.433L317.931 246.445L329.005 230.449L354.435 285.409L294.1429999999999 282.539L305.627 265.312L239.182 220.194L219.905 248.904L122.697 183.28L135.002 164.824z" />
    <glyph glyph-name="010.acl-launcher-logo"
      unicode="&#xEA0A;"
      horiz-adv-x="480" d="M448.943 158.38C438.12 52.556 348.723 -30 240.043 -30C124.063 -30 30.043 64.02 30.043 180S124.063 390 240.043 390C353.998 390 446.7530000000001 299.234 449.957 186.054C363.472 162.687 308.0300000000001 124.538 265.957 89.257C227.469 56.987 204.993 54.32 195.275 55.433C193.953 55.713 192.628 55.987 191.327 56.328C192.107 56.068 192.905 55.884 193.694 55.662A19.638 19.638 0 0 0 191.134 56.284C194.777 54.897 204.308 51.724 215.471 51.724C229.745 51.724 253.406 58.749 306.199 54.911C326.564 53.431 337.683 63.695 353.669 80.725L387.123 114.398C401.996 127.7120000000001 421.085 142.355 447.195 157.388C447.773 157.72 448.355 158.0510000000001 448.943 158.3800000000001zM222.213 62.92C246.398 75.58 265.148 113.0200000000001 297.599 140.745L303.859 146.308C305.197 147.401 308.062 150.358 310.616 152.902V220.208C310.616 280.145 272.1620000000001 308.614 229.211 308.614C183.756 308.614 150.301 282.142 150.301 240.684C150.301 231.694 156.284 226.204 163.773 226.204H182.261C189.749 226.204 195.741 231.694 195.741 240.684C195.741 255.172 206.233 266.6600000000001 229.211 266.6600000000001C249.686 266.6600000000001 265.171 252.174 265.171 231.197V210.22L205.731 195.737C158.777 184.25 143.793 162.767 143.793 123.815C143.793 93.833 161.905 68.7889999999999 187.339 57.831C188.379 57.384 189.432 56.9809999999999 190.494 56.6059999999999C195.689 55.6859999999999 206.384 55.4309999999999 222.214 62.92zM212.721 153.776L265.171 166.268V141.292C265.171 118.3200000000001 247.183 93.847 221.217 93.847C202.231 93.847 189.257 109.8270000000001 189.257 125.8130000000001C189.257 134.8000000000001 192.737 149.2890000000001 212.721 153.7760000000001z" />
    <glyph glyph-name="011.acl-logo"
      unicode="&#xEA0B;"
      horiz-adv-x="480" d="M324.747 109.076H311.567S299.225 109.076 299.225 96.316C299.225 81.85 289.025 65.266 266.903 65.266C247.113 65.266 235.428 75.966 233.901 100.076V100.073C220.646 88.7330000000001 210.185 78.145 200.989 69.121C210.956 42.989 233.302 29.5360000000001 266.903 29.5360000000001C296.2430000000001 29.5360000000001 337.927 45.2720000000001 337.927 95.8890000000001C337.927 105.2470000000001 332.832 109.0770000000001 324.747 109.0770000000001zM437.25 65.266H428.747C401.529 65.266 399.389 81.4260000000001 399.389 97.592V317.928C399.389 325.1600000000001 393.8630000000001 330.264 387.4830000000001 330.264H372.1710000000001C365.7910000000001 330.264 360.687 325.1600000000001 360.687 317.928V97.592C360.687 55.482 382.809 29.535 428.747 29.535H437.25C444.48 29.535 449.593 35.063 449.593 41.445V53.78C449.593 60.16 444.48 65.265 437.25 65.265zM233.715 164.434V164.374V181.894C233.715 199.7590000000001 246.905 212.096 264.341 212.096C283.9110000000001 212.096 292.8440000000001 202.3130000000001 292.8440000000001 189.9730000000001C292.8440000000001 182.3190000000001 297.948 177.643 304.3290000000001 177.643H320.0710000000001C326.451 177.643 331.544 182.319 331.544 189.9730000000001C331.544 225.2830000000001 303.052 247.8260000000001 264.341 247.8260000000001C227.761 247.8260000000001 195.013 223.5800000000001 195.013 172.5360000000001V128.3140000000001C210.441 136.2140000000001 223.533 142.5000000000001 233.715 146.6210000000001V164.4350000000001zM133.777 105.67C133.777 86.108 118.457 65.265 96.344 65.265C80.174 65.265 69.127 78.875 69.127 92.488C69.127 100.145 72.09 112.482 89.109 116.303L133.779 126.941V105.671zM103.152 248.17C64.442 248.17 35.95 225.625 35.95 190.32C35.95 182.662 41.045 177.986 47.426 177.986H63.164C69.544 177.986 74.648 182.662 74.648 190.319C74.648 202.655 83.582 212.439 103.151 212.439C120.589 212.439 133.777 200.102 133.777 182.237V164.372L83.157 152.04C43.167 142.255 30.407 123.96 30.407 90.786C30.407 65.252 45.832 43.923 67.492 34.591C68.379 34.211 69.275 33.867 70.176 33.547C74.602 32.765 83.71 32.547 97.192 38.924C117.788 49.708 133.757 81.5940000000001 161.394 105.2040000000001L166.724 109.9420000000001C167.861 110.8700000000001 170.301 112.7570000000001 172.48 114.4380000000001V172.8780000000001C172.48 223.922 139.73 248.1680000000001 103.15 248.1680000000001zM69.362 33.82S88.542 22.866 134.447 61.356C180.35 99.849 244.941 142.352 359.867 157.256C362.929 157.654 368.351 158.406 368.351 158.406L368.0470000000001 147.756S310.6900000000001 131.983 288.7970000000001 119.376C206.887 72.221 207.217 30.392 169.645 30.392H91.45C79.29 30.392 69.362 33.822 69.362 33.822L314.3920000000001 -106.418" />
    <glyph glyph-name="012.grc-logo"
      unicode="&#xEA0C;"
      horiz-adv-x="480" d="M31.224 236.145C36.487 255.448 57.54 267.725 76.842 262.461C96.146 257.199 108.422 236.146 103.159 216.843C97.896 197.541 76.843 185.263 57.541 190.527C38.237 195.791 25.961 216.843 31.224 236.147zM166.316 199.303C169.8300000000001 208.079 178.593 213.343 187.369 211.579C196.146 209.815 201.409 199.302 199.646 190.525C197.896 181.749 187.369 176.485 178.593 178.249C169.816 181.762 164.553 190.525 166.316 199.302zM104.908 180C104.908 194.04 117.185 206.316 131.2240000000001 206.316C145.264 206.316 157.54 194.04 157.54 180S145.263 153.684 131.223 153.684C117.183 153.684 104.907 164.21 104.907 180zM296.146 388.777C315.449 383.514 327.7260000000001 362.461 322.4620000000001 343.159C317.2000000000001 323.855 296.1470000000001 311.579 276.8440000000001 316.842C257.5420000000001 322.105 245.264 343.158 250.528 362.46C255.7920000000001 381.764 276.8440000000001 394.04 296.148 388.777zM259.3040000000001 253.685C268.0800000000001 250.171 273.3440000000001 241.408 271.5800000000001 232.632C269.8160000000001 223.855 259.3030000000001 218.592 250.526 220.355C241.75 222.105 236.4860000000001 232.632 238.25 241.408C241.7630000000001 250.185 250.526 255.448 259.3030000000001 253.685zM240.0010000000001 315.093C254.041 315.093 266.317 302.8160000000001 266.317 288.7770000000001C266.317 274.737 254.041 260.711 240.0010000000001 260.711S213.685 272.988 213.685 287.028C213.685 301.068 224.211 315.0940000000001 240.0010000000001 315.0940000000001zM131.2240000000001 367.725C148.764 378.251 171.5800000000001 371.238 182.106 353.685C192.632 336.132 187.369 313.3300000000001 169.8300000000001 302.803C152.29 292.277 129.473 299.29 118.947 316.843C108.42 334.395 113.684 357.198 131.223 367.725zM203.159 244.908C211.935 250.171 222.461 246.658 225.961 237.895S227.711 218.592 218.948 215.092C210.172 209.829 199.646 213.342 196.146 222.105C190.882 230.882 194.396 241.408 203.159 244.908zM145.264 274.738C155.79 285.264 171.5800000000001 285.264 182.106 274.738C192.632 264.211 192.632 246.671 182.106 236.145C171.5800000000001 225.619 154.04 225.619 143.514 236.145C134.7370000000001 248.421 134.7370000000001 264.211 145.264 274.737zM427.7260000000001 288.778C438.2520000000001 271.238 431.2390000000001 248.421 413.6860000000001 237.895C396.1330000000001 227.369 373.331 232.632 362.8040000000001 250.171C352.278 267.711 359.2910000000001 290.528 376.8440000000001 301.054C394.3960000000002 311.581 417.1990000000002 306.317 427.7260000000001 288.778zM304.9090000000001 216.84C310.1720000000001 208.064 306.6590000000001 197.538 297.8960000000002 194.038S278.5930000000002 192.288 275.0930000000002 201.051C269.8300000000002 209.827 273.3430000000002 220.353 282.1060000000001 223.853C290.8830000000001 229.117 301.4090000000001 225.603 304.9090000000001 216.84zM334.7390000000001 274.735C345.2650000000001 264.209 345.2650000000001 246.669 334.7390000000001 236.1430000000001C324.2120000000001 225.617 306.6720000000001 225.617 296.146 236.1430000000001C285.6200000000001 246.6690000000001 285.6200000000001 264.2090000000001 296.146 274.735C308.4220000000001 285.262 324.2120000000001 285.262 334.7380000000001 274.735zM348.7790000000001 -7.727C331.2390000000001 -18.253 308.4220000000002 -11.24 297.8960000000002 6.313C287.3700000000001 23.866 294.3830000000002 46.6680000000001 311.9360000000002 57.1950000000001C329.4760000000001 67.7210000000001 352.2910000000001 60.708 362.8160000000002 43.155C371.5940000000001 25.615 366.3310000000002 2.8 348.7780000000002 -7.727zM276.841 115.092C268.0650000000001 109.829 257.5390000000001 113.342 254.0390000000001 122.105C248.7750000000001 130.881 252.2890000000001 141.408 261.052 144.908C269.8280000000001 150.1709999999999 280.3540000000001 146.658 283.8540000000001 137.895C289.1180000000001 129.118 285.6040000000001 118.592 276.8410000000001 115.092zM334.7360000000001 85.262C324.2100000000001 74.736 306.67 74.736 296.144 85.262C285.6180000000001 95.789 285.6180000000001 113.329 296.144 123.855C306.67 134.381 324.2100000000001 134.381 334.7360000000001 123.855C345.2630000000001 111.579 345.2630000000001 95.7890000000001 334.7360000000001 85.263zM448.776 123.855C443.5130000000001 104.552 422.4600000000001 92.275 403.158 97.5390000000001C383.8540000000001 102.8010000000001 371.5780000000001 123.8540000000001 376.841 143.1570000000001C382.1040000000001 162.4590000000001 403.1570000000001 174.737 422.4590000000001 169.4730000000001C441.7630000000001 164.209 454.039 143.1570000000001 448.776 123.8530000000001zM313.6840000000001 160.697C311.9340000000001 151.921 301.4070000000001 146.657 292.6310000000001 148.421C283.8540000000001 150.185 278.591 160.698 280.3540000000001 169.475C282.1040000000001 178.251 292.6310000000001 183.515 301.4070000000001 181.751C310.1840000000001 178.238 315.4470000000001 169.475 313.6840000000001 160.698zM375.0940000000001 180C375.0940000000001 165.96 362.8170000000001 153.684 348.7780000000002 153.684C334.7380000000001 153.684 322.4620000000002 165.96 322.4620000000002 180S334.7390000000002 206.316 348.7790000000001 206.316C362.8190000000002 206.316 375.0950000000002 195.79 375.0950000000002 180zM183.856 -28.777C164.553 -23.514 152.276 -2.461 157.54 16.841C162.802 36.145 183.855 48.421 203.158 43.158C222.46 37.895 234.738 16.842 229.4740000000001 -2.46C224.21 -21.764 203.158 -34.04 183.8540000000001 -28.777zM220.698 106.3150000000001C211.922 108.0650000000001 206.658 118.5920000000001 208.422 127.3680000000001C210.186 136.1450000000001 220.699 141.4080000000001 229.476 139.6450000000001C238.252 137.8950000000001 243.516 127.3680000000001 241.752 118.5920000000001C238.2390000000001 109.8150000000001 229.476 104.552 220.699 106.3150000000001zM240.0010000000001 44.907C225.961 44.907 213.685 57.184 213.685 71.223C213.685 85.263 225.961 97.5389999999999 240.0010000000001 97.5389999999999S266.317 85.2619999999999 266.317 71.2219999999999C266.317 57.1819999999999 255.791 44.906 240.0010000000001 44.906zM52.276 71.223C41.75 88.763 48.763 111.579 66.316 122.105C83.869 132.631 106.671 127.368 117.198 109.829C127.724 92.289 120.711 69.472 103.158 58.946C85.606 48.419 62.803 53.6830000000001 52.276 71.222zM175.093 143.158C169.8300000000001 151.934 173.343 162.46 182.106 165.96C190.882 171.224 201.409 167.71 204.909 158.947C210.172 150.171 206.659 139.645 197.896 136.145C189.119 130.881 178.593 134.395 175.093 143.158zM145.263 85.263C134.737 95.7890000000001 134.737 113.329 145.263 123.855C155.79 134.381 173.3300000000001 134.381 183.856 123.855C194.382 113.329 194.382 95.7890000000001 183.856 85.263C171.5800000000001 74.7360000000001 155.79 74.7360000000001 145.264 85.263z" />
    <glyph glyph-name="013.analytics-logo-circle"
      unicode="&#xEA0D;"
      horiz-adv-x="480" d="M185.644 122.09H263.201L240.331 143.303L185.644 122.091zM194.261 189.042L125.321 122.092L224.421 159.212L194.261 189.042zM159.129 222.848L125.322 151.92L178.352 203.294L159.129 222.848zM284.413 182.08L257.898 249.3640000000001L210.171 203.2940000000001L245.635 167.8300000000001L284.415 182.0800000000001zM328.827 176.778L310.9270000000001 169.818L330.483 122.091H363.9580000000001L328.8280000000001 176.779zM240 389.562C124.66 389.562 30.53 295.102 30.53 180.092S124.66 -29.378 240 -29.378S449.47 64.752 449.47 180.092C449.47 295.4340000000001 355.01 389.562 240 389.562zM77.595 100.88L153.495 256.324L194.261 217.544L264.858 288.142L303.638 191.03L337.113 203.294L403.0670000000001 100.88H77.595zM263.201 151.92L293.361 122.09H307.613L291.703 162.5270000000001L263.201 151.9200000000001z" />
    <glyph glyph-name="014.analytics-logo"
      unicode="&#xEA0E;"
      horiz-adv-x="480" d="M450 60.507L365.3400000000001 191.297L321.6850000000001 174.823L271.417 301L180.472 210.403L127.559 261.467L30 60.507H450zM355.087 158.022L400.063 87.522H356.4100000000001L331.937 149.127L355.087 158.022zM168.897 87.522L240.992 114.865L269.432 87.521H168.9zM91.843 87.522L180.473 172.847L219.165 135.62L91.843 87.52zM308.457 87.522L269.102 125.407L306.802 139.902L327.307 87.852L308.457 87.522zM261.827 251.254L296.2200000000001 164.94L246.945 146.49L199.985 191.625L261.827 251.255zM135.497 216.004L160.63 191.954L92.173 126.724L135.4960000000001 216.004z" />
    <glyph glyph-name="015.lab-logo"
      unicode="&#xEA0F;"
      horiz-adv-x="480" d="M263.9505 331.74C279.7655 331.74 292.2555 344.642 292.2555 360.457C292.2555 376.273 279.7655 389.177 263.9505 389.177C248.1345 389.177 235.6445 376.273 235.6445 360.457C235.6445 344.642 248.5465 331.739 263.9505 331.739zM271.0265 297.6070000000001C262.2865 297.6070000000001 255.2105 290.531 255.2105 281.7920000000001C255.2105 273.052 262.2875000000001 265.976 271.0265 265.976C279.7665 265.976 286.8425 273.052 286.8425 281.7920000000001C286.8425 290.118 279.7655 297.6070000000001 271.0265 297.6070000000001zM370.5095 32.438L287.6665 161.065V191.872C291.8305 193.535 297.6565 196.448 302.2315 201.022C313.0585 211.852 311.3815 234.332 310.5575 243.895C309.7195 250.133 304.7315 253.885 298.4795000000001 253.885H181.9175C175.6795 253.885 170.6775 250.133 170.2655 243.895C169.0155 234.317 166.9405 211.425 177.7555 200.597C182.7555 195.597 187.7435 193.109 191.9075 191.857V161.051L109.9025 32.425C107.8275 29.1 107.8275 24.937 109.4905 21.185C110.3285 19.11 133.6325 -29.188 229.7905 -29.188H250.1805C346.7505 -29.188 369.2305 18.686 370.4825 21.186C372.5565000000001 24.5120000000001 372.5565000000001 28.676 370.4825 32.426L370.5095 32.4400000000001zM200.2475 91.55V90.713L151.1245 12.459C142.7975 17.459 137.8095 22.447 134.8965 26.199L215.2395 151.501C216.4895 153.576 216.9015 155.6640000000001 216.9015 158.165V201.875C216.9015 208.539 212.3245 213.525 206.0715 213.952C206.0715 213.952 199.8345 214.792 196.0835 218.954C194.4205 220.6170000000001 193.5835 224.78 193.5835 233.1070000000001H287.6655C287.2535000000001 224.78 286.8275 220.617 285.5905000000001 219.367C281.4265000000001 215.203 274.3505 214.365 274.3505 214.365C267.6855 213.952 262.2705000000001 208.539 262.2705000000001 202.287V158.165C262.2705000000001 155.665 263.5225000000001 154.001 264.7725000000001 151.927L304.3185000000001 91.5630000000001H200.2475V91.5500000000001zM207.7505 278.865C221.4905 278.865 232.7305 290.105 232.7305 304.2580000000001S221.4925 329.65 207.7525 329.65S182.7725 318.4100000000001 182.7725 304.2580000000001C182.7725 290.105 194.0125 278.865 207.7525 278.865z" />
    <glyph glyph-name="016.lab-logo-circle"
      unicode="&#xEA10;"
      horiz-adv-x="480" d="M254.952 172.003V203.8C254.952 208.603 258.554 212.204 263.3550000000001 212.497C263.3550000000001 212.497 267.8500000000001 212.791 271.158 216.099C272.0520000000001 217.299 272.358 221.193 272.6520000000001 225.701H204.2520000000001C204.2520000000001 221.206 204.8520000000001 217.005 205.7470000000001 215.804C208.4410000000001 212.804 213.2430000000001 212.51 213.2430000000001 212.51C217.7380000000001 212.217 221.6460000000001 208.616 221.6460000000001 203.814V172.016C221.6460000000001 170.216 221.0460000000001 168.722 220.1520000000001 167.216L161.9570000000001 76.93C164.0510000000001 74.235 167.6520000000001 70.634 173.6550000000001 67.033L209.3480000000001 123.4260000000001V123.7190000000001H284.0430000000001L256.1530000000002 167.2140000000001C255.2590000000001 168.7080000000001 254.9530000000001 170.2140000000001 254.9530000000001 172.0140000000001V172.0020000000001zM240 390C124.21 390 30.32 296.1140000000001 30.32 180.326C30.32 64.539 124.21 -29.348 240 -29.348S449.68 64.539 449.68 180.326C449.68 296.1140000000001 355.7900000000001 390 240 390zM254.7 339.61C266.103 339.61 275.093 330.312 275.093 318.908C275.093 307.504 265.796 298.2080000000001 254.699 298.2080000000001C243.599 298.2080000000001 234.303 307.504 234.303 318.908S243.6 339.608 254.698 339.608zM271.198 261.915C271.198 255.6190000000001 266.103 250.511 259.794 250.511A11.39 11.39 0 0 0 248.39 261.9160000000001A11.39 11.39 0 0 0 259.794 273.3200000000001A11.39 11.39 0 0 0 271.198 261.915zM214.203 296.7150000000001C224.1 296.7150000000001 232.197 288.6180000000001 232.197 278.415C232.197 268.2100000000001 224.1 260.115 214.203 260.115S196.21 268.2100000000001 196.21 278.415C196.21 288.6180000000001 204.013 296.7150000000001 214.203 296.7150000000001zM331.5 74.14C330.9 72.646 314.7080000000001 37.847 245.108 37.847H230.41C160.81 37.847 144.617 72.645 144.017 74.139C142.817 76.833 143.11 79.834 144.617 82.235L204.32 174.924V197.12C200.718 198.32 196.823 200.413 193.222 203.72C185.419 211.524 186.326 228.316 187.22 235.212C187.82 239.707 191.115 243.015 195.623 243.015H279.615C284.11 243.015 287.711 239.72 288.018 235.212C288.618 228.316 289.512 211.51 282.016 203.722C278.416 200.12 274.52 198.319 270.918 197.119V174.923L330.915 82.237C332.715 79.837 333.009 76.835 331.515 74.141H331.501z" />
    <glyph glyph-name="017.analysis-scripts"
      unicode="&#xEA11;"
      horiz-adv-x="480" d="M204.995 273.156L237.813 308.161H64.957C40.892 308.161 45.264 288.469 45.264 288.469V270.962H204.994V273.158zM399.7300000000001 231.584L353.7770000000001 203.137C349.4050000000001 200.951 345.0230000000001 203.137 345.0230000000001 207.509V266.589C345.0230000000001 270.959 349.3950000000001 273.155 351.591 270.959L397.546 240.327C404.113 238.141 404.113 233.759 399.732 231.573V231.583zM443.49 284.096C419.4240000000001 327.8540000000001 362.5300000000001 343.176 320.9580000000001 319.1C316.586 316.914 312.2050000000001 314.728 310.0180000000001 310.347H279.3860000000001C275.014 310.347 272.8180000000001 308.161 268.4460000000001 305.975L229.06 260.02H49.636C43.068 260.02 36.51 253.453 36.51 246.895V43.405C36.51 34.652 43.078 30.28 49.636 30.28H382.224C388.791 30.28 395.349 36.848 395.349 43.406V150.626C399.719 152.811 406.289 154.996 410.659 157.193C454.419 183.453 469.739 240.337 443.479 284.105L443.489 284.0950000000001zM62.77 229.398H233.44C237.813 229.398 240.01 231.584 244.38 233.77L283.767 281.9100000000001H285.953C270.6429999999999 253.463 270.6429999999999 220.644 288.1389999999999 192.198C305.6449999999999 161.565 336.2789999999999 146.244 366.9109999999999 146.244V54.346L307.8309999999999 150.626L275.013 135.314L233.4399999999999 222.84L174.3619999999999 157.202L137.1619999999999 194.402L62.7719999999999 54.365V229.407V229.397zM285.953 65.295H266.26L235.627 95.927L264.074 109.0529999999999L285.954 65.295zM283.758 119.993L299.068 126.56L340.642 69.6669999999999H310.01L283.748 119.993H283.758zM237.813 65.295H167.793L215.933 87.175L237.813 65.295zM220.306 113.435L189.674 144.067L229.06 187.827L257.507 128.747L220.307 113.434zM200.613 104.6809999999999L106.529 67.4809999999999L174.361 128.747L200.621 104.682H200.611zM99.96 91.547L141.534 161.567L159.041 144.059L99.961 91.547zM404.103 172.505C401.917 170.319 399.731 170.319 397.535 168.1330000000001C388.782 163.761 377.842 161.566 369.088 161.566C345.023 161.566 320.948 174.691 307.823 198.766C292.511 225.026 296.883 257.846 312.195 281.911C318.763 288.478 325.321 295.036 334.075 301.604C342.828 305.976 349.395 308.171 358.139 310.3570000000001C364.7060000000001 312.543 373.449 312.543 380.017 310.3570000000001C380.017 310.3570000000001 390.957 308.171 393.143 305.985C408.455 299.418 421.59 288.478 430.343 273.1670000000001C450.036 238.162 436.911 194.394 404.083 172.515L404.103 172.505z" />
    <glyph glyph-name="018.academy__head__graduate"
      unicode="&#xEA12;"
      horiz-adv-x="480" d="M40.829 186.326H64.676V160.444H40.83V186.326zM440.485 293.518L257.1930000000001 387.558C250.8530000000001 390.814 240.4730000000001 390.814 234.1330000000001 387.558L39.306 287.6V208.208H65.096V273.37L116.691 244.864V155.274H116.743C116.743 145.796 116.796 137.357 116.796 130.506C116.744 130.296 116.744 130.086 116.691 129.876C116.743 129.876 116.743 129.902 116.796 129.902V115.582C116.796 48.592 194.181 -29.988 245.762 -29.988C297.344 -29.988 374.729 48.592 374.729 115.582C374.729 134.167 375.319 209.938 375.044 245.087L440.6940000000001 281.351C446.942 284.817 446.837 290.304 440.4840000000001 293.5590000000001V293.519zM140.801 238.93C167.771 245.796 203.249 249.996 242.296 249.996C281.344 249.996 316.846 245.782 343.793 238.931V210.005C316.9000000000001 216.922 281.4490000000001 221.187 242.2970000000001 221.187C203.147 221.187 167.7740000000001 216.922 140.8030000000001 210.005V238.93zM343.806 146.335C343.7009999999999 133.645 343.6479999999999 123.288 343.6479999999999 118.012C343.6479999999999 68.322 276.58 9.994 242.218 9.994C207.831 9.994 140.788 68.321 140.788 118.014V136.309C163.022 145.209 181.108 164.777 190.558 190.0030000000001C212.648 166.7470000000001 259.242 150.6830000000001 313.33 150.6830000000001C323.882 150.6830000000001 333.9749999999999 151.4960000000001 343.78 152.703V146.3370000000001H343.806zM204.248 134.56C197.265 134.56 191.556 128.786 191.556 121.62C191.556 114.48 197.266 108.68 204.248 108.68C211.283 108.68 216.94 114.48 216.94 121.62C216.94 128.786 211.283 134.56 204.248 134.56zM280.373 134.56C273.39 134.56 267.681 128.786 267.681 121.62C267.681 114.48 273.391 108.68 280.373 108.68C287.408 108.68 293.065 114.48 293.065 121.62C293.065 128.786 287.407 134.56 280.3720000000001 134.56z" />
    <glyph glyph-name="019.file"
      unicode="&#xEA13;"
      horiz-adv-x="480" d="M100.286 5.366H379.7140000000001V214.94H266.1910000000001C258.9170000000001 214.94 252.733 217.49 247.636 222.586C242.54 227.682 239.992 233.866 239.992 241.14V354.663H100.286V5.367zM274.919 249.854H377.516C375.701 255.126 373.7000000000001 258.854 371.5130000000001 261.042L286.106 346.448C283.9200000000001 348.635 280.1910000000001 350.636 274.919 352.452V249.854zM414.641 241.126V-3.377C414.641 -10.65 412.093 -16.835 406.996 -21.931C401.9 -27.028 395.7160000000001 -29.576 388.4420000000001 -29.576H91.556C84.284 -29.576 78.099 -27.028 73.003 -21.932C67.906 -16.8369999999999 65.358 -10.652 65.358 -3.379V363.363C65.358 370.635 67.906 376.82 73.003 381.916C78.099 387.013 84.283 389.561 91.557 389.561H266.1920000000001C273.4650000000002 389.561 281.472 387.741 290.2090000000001 384.099C298.9460000000002 380.459 305.8590000000001 376.094 310.9450000000001 371.007L396.087 285.865C401.183 280.769 405.5470000000001 273.8570000000001 409.179 265.129C412.8110000000001 256.401 414.632 248.395 414.6420000000001 241.112V241.128z" />
    <glyph glyph-name="020.file-filled"
      unicode="&#xEA14;"
      horiz-adv-x="480" d="M414.926 214.99V-3.673C414.926 -10.959 412.3760000000001 -17.153 407.273 -22.255S395.976 -29.908 388.69 -29.908H91.309C84.023 -29.908 77.829 -27.358 72.727 -22.255C67.624 -17.153 65.074 -10.96 65.074 -3.673V363.673C65.074 370.959 67.624 377.153 72.727 382.255C77.829 387.3570000000001 84.023 389.908 91.309 389.908H239.992V241.224C239.992 233.939 242.542 227.744 247.645 222.644C252.748 217.541 258.942 214.99 266.228 214.99H414.926zM414.116 249.964H274.9940000000001V389.082C289.9340000000001 386.347 301.9600000000001 380.4220000000001 311.0720000000001 371.312L396.3420000000001 286.0420000000001C405.4550000000001 276.929 411.3780000000001 264.902 414.112 249.964z" />
    <glyph glyph-name="021.file-text"
      unicode="&#xEA15;"
      horiz-adv-x="480" d="M344.962 48.81V66.306C344.962 68.856 344.14 70.954 342.497 72.596C340.855 74.24 338.757 75.061 336.207 75.061H143.794C141.242 75.061 139.144 74.241 137.504 72.598C135.86 70.955 135.038 68.858 135.038 66.3079999999999V48.812C135.038 46.2619999999999 135.86 44.165 137.503 42.5219999999999C139.143 40.8799999999999 141.241 40.0579999999999 143.793 40.0579999999999H336.206C338.7560000000001 40.0579999999999 340.8540000000001 40.8799999999999 342.4960000000001 42.5219999999999C344.139 44.1649999999999 344.961 46.2619999999999 344.961 48.812zM344.962 118.776V136.27C344.962 138.82 344.14 140.918 342.497 142.56C340.855 144.204 338.757 145.026 336.207 145.026H143.794C141.242 145.026 139.144 144.204 137.504 142.561C135.86 140.9190000000001 135.038 138.821 135.038 136.271V118.7770000000001C135.038 116.225 135.86 114.129 137.503 112.487C139.143 110.843 141.241 110.021 143.793 110.021H336.206C338.7560000000001 110.021 340.8540000000001 110.843 342.4960000000001 112.486C344.139 114.129 344.961 116.226 344.961 118.776zM414.926 214.99V-3.673C414.926 -10.959 412.3760000000001 -17.153 407.273 -22.255S395.976 -29.908 388.69 -29.908H91.309C84.023 -29.908 77.829 -27.358 72.727 -22.255C67.624 -17.153 65.074 -10.96 65.074 -3.673V363.673C65.074 370.959 67.624 377.153 72.727 382.255C77.829 387.3570000000001 84.023 389.908 91.309 389.908H239.992V241.224C239.992 233.939 242.542 227.744 247.645 222.644C252.748 217.541 258.942 214.99 266.228 214.99H414.926zM414.116 249.964H274.9940000000001V389.082C289.9340000000001 386.347 301.9600000000001 380.4220000000001 311.0720000000001 371.312L396.3420000000001 286.0420000000001C405.4550000000001 276.929 411.3780000000001 264.902 414.112 249.964z" />
    <glyph glyph-name="022.clipboard"
      unicode="&#xEA16;"
      horiz-adv-x="480" d="M144.736 86.67H335.208V115.243H144.736V86.671zM268.551 172.386H144.735V143.814H268.552V172.386zM363.791 345.7140000000001H312.364C312.364 360.9570000000001 299.034 374.2860000000001 283.792 374.2860000000001H264.752C259.036 383.814 251.422 389.5290000000001 239.992 389.5290000000001C228.565 389.5290000000001 220.952 383.8130000000001 215.236 374.2850000000001H196.192C180.952 374.2850000000001 167.622 360.9550000000001 167.622 345.713H116.192C100.952 345.713 87.622 332.3850000000001 87.622 317.1430000000001V-0.957C87.622 -16.201 100.952 -29.53 116.192 -29.53H363.8080000000001C379.0510000000001 -29.53 392.3780000000001 -16.2 392.3780000000001 -0.957V317.1430000000001C392.3780000000001 332.386 379.0510000000001 345.713 363.8080000000001 345.713H363.7930000000001zM196.164 345.7140000000001H281.878V313.3290000000001H196.164V345.713zM363.792 58.1L312.365 0.957H116.179V313.343H167.609C167.609 298.1 180.936 284.771 196.179 284.771H281.893C297.137 284.771 310.466 298.101 310.466 313.3440000000001H361.894V58.1H363.7939999999999zM144.737 200.957H335.209V231.43H144.736V200.957z" />
    <glyph glyph-name="023.attachment__paperclip"
      unicode="&#xEA17;"
      horiz-adv-x="480" d="M184.922 338.865C185.182 338.471 185.577 338.209 185.84 337.815L410.3300000000001 117.525L430.004 137.593L205.514 357.8829999999999C205.384 358.013 205.251 358.277 204.989 358.408C161.847 400.7629999999999 92.481 400.106 49.996 356.964C8.036 314.216 8.298 245.769 50.258 203.2839999999999L50.521 203.0209999999999C50.781 202.761 51.045 202.3659999999999 51.438 202.1029999999999C51.57 201.9729999999999 51.832 201.8409999999999 51.963 201.5779999999999L263.473 -6.2560000000001C263.867 -6.6500000000001 264.26 -7.1760000000001 264.785 -7.5680000000001C295.3400000000001 -37.5980000000001 344.507 -37.2040000000001 374.5370000000001 -6.5180000000001C404.4350000000001 23.9059999999999 404.0420000000001 72.81 373.8800000000001 102.8399999999999L372.1730000000001 104.5459999999999L352.105 124.221L159.352 313.43S159.352 313.56 159.222 313.56L159.092 313.69L158.697 314.085C140.729 331.265 112.011 330.872 94.319 312.905C76.626 294.935 76.745 266.087 94.449 248.263C94.581 248.133 94.713 248.001 94.844 247.738L94.974 247.608L114.387 228.588L256.267 89.201L275.943 109.271L114.663 267.545C114.401 267.807 114.27 267.938 114.139 268.201C107.445 275.421 107.576 286.301 114.269 293.2440000000001C121.095 300.187 132.239 300.462 139.312 293.9C139.442 293.9 139.442 293.767 139.574 293.767L140.494 292.849L140.886 292.323L141.411 291.798L159.247 274.222L159.379 274.354L354.3639999999999 82.781C373.382 63.7629999999999 373.644 32.434 354.626 13.021C335.608 -6.3890000000001 304.41 -6.784 284.866 11.9709999999999L283.029 13.809V13.679L71.652 221.514L70.732 222.434C70.472 222.696 70.208 222.958 69.946 223.221C39.128 254.827 38.996 305.568 70.076 337.304C101.42 369.1720000000001 152.816 369.828 184.946 338.879L184.921 338.866z" />
    <glyph glyph-name="024.chart-bar"
      unicode="&#xEA18;"
      horiz-adv-x="480" d="M108.145 65.878H142.291C153.673 65.878 163.163 75.368 163.163 86.75V234.717C163.163 246.1 153.673 255.589 142.291 255.589H108.145C96.763 255.589 87.273 246.099 87.273 234.716V88.641C87.273 75.367 96.763 65.877 108.145 65.877zM221.966 65.878H256.1130000000001C267.4950000000001 65.878 276.9830000000001 75.368 276.9830000000001 88.642V158.827C276.9830000000001 170.209 267.4950000000001 179.699 256.1130000000001 179.699H221.966C210.584 179.699 201.094 170.209 201.094 156.934V86.749C201.094 75.367 210.584 65.877 221.967 65.877zM335.787 65.878H369.934C381.317 65.878 390.807 75.368 390.807 86.75V329.573C390.807 340.955 381.317 350.445 369.935 350.445H335.789C324.407 350.445 314.917 340.955 314.917 329.573V88.657C314.917 75.382 324.407 65.892 335.789 65.892V65.878zM430.643 46.913H47.45C37.96 46.913 30.377 39.329 30.377 27.947C30.377 18.457 37.96 8.982 47.45 8.982H432.5500000000001C442.0400000000001 8.982 449.623 16.5650000000001 449.623 27.947C447.7300000000001 39.329 440.133 46.913 430.657 46.913H430.643z" />
    <glyph glyph-name="025.mail"
      unicode="&#xEA19;"
      horiz-adv-x="480" d="M419.938 52.27V232.2A137.6 137.6 0 0 0 403.765 216.743C361.908 184.571 328.6410000000001 158.176 303.965 137.557C296.003 130.843 289.522 125.61 284.522 121.857C279.522 118.105 272.765 114.319 264.2520000000001 110.5C255.7370000000001 106.68 247.732 104.767 240.2370000000001 104.757H239.7640000000001C232.269 104.757 224.264 106.671 215.75 110.5C207.236 114.33 200.478 118.114 195.478 121.857C190.478 125.6 183.9980000000001 130.833 176.038 137.557C151.36 158.177 118.094 184.571 76.238 216.743A137.6 137.6 0 0 0 60.064 232.2V52.27C60.064 50.243 60.807 48.486 62.294 47C63.778 45.514 65.536 44.77 67.564 44.77H412.438C414.465 44.77 416.222 45.514 417.708 47C419.194 48.486 419.938 50.243 419.938 52.27zM419.938 298.5V304.243S419.898 305.257 419.822 307.286C419.746 309.314 419.512 310.29 419.1220000000001 310.214C418.7320000000001 310.138 418.3020000000001 310.844 417.837 312.329C417.369 313.813 416.664 314.399 415.721 314.085C414.7780000000001 313.77 413.683 313.965 412.436 314.67H67.564C65.536 314.67 63.778 313.93 62.294 312.443C60.807 310.957 60.064 309.2 60.064 307.171C60.064 280.9340000000001 71.544 258.753 94.507 240.631A34552.85 34552.85 0 0 0 188.45 166.358C189.383 165.578 192.117 163.2719999999999 196.65 159.444C201.183 155.614 204.774 152.687 207.42 150.658C210.07 148.63 213.545 146.168 217.85 143.2719999999999C222.155 140.3779999999999 226.097 138.2319999999999 229.678 136.8319999999999C233.26 135.432 236.618 134.726 239.751 134.716H240.221C243.346 134.716 246.703 135.4209999999999 250.2940000000001 136.831C253.8840000000001 138.239 257.827 140.387 262.1220000000001 143.271C266.4180000000001 146.158 269.894 148.621 272.5520000000001 150.658C275.2080000000001 152.696 278.798 155.625 283.322 159.444C287.846 163.264 290.5790000000001 165.568 291.522 166.358C324.008 192.13 355.322 216.888 385.465 240.63C393.903 247.343 401.751 256.362 409.008 267.6859999999999C416.265 279.01 419.898 289.281 419.908 298.5H419.938zM449.922 307.17V52.27C449.922 41.967 446.252 33.143 438.908 25.8C431.565 18.4569999999999 422.741 14.7859999999999 412.438 14.7859999999999H67.564C57.259 14.7859999999999 48.436 18.456 41.094 25.8C33.75 33.143 30.078 41.967 30.078 52.27V307.17C30.078 317.476 33.751 326.3 41.094 333.643S57.26 344.657 67.564 344.657H412.438C422.741 344.657 431.565 340.987 438.908 333.643C446.251 326.3 449.922 317.476 449.922 307.171z" />
    <glyph glyph-name="026.calendar__date"
      unicode="&#xEA1A;"
      horiz-adv-x="480" d="M75.0125 0.004H142.5125000000001V67.506H75.0125V0.004zM157.5025000000001 0.004H232.4985000000001V67.506H157.5025000000001V0.004zM75.0125 82.494H142.5125000000001V157.49H75.0125V82.494zM157.5025000000001 82.494H232.4985000000001V157.49H157.5025000000001V82.494zM75.0125 172.506H142.5125000000001V240.0060000000001H75.0125V172.506zM247.5125000000001 0.004H322.5095V67.506H247.5125000000001V0.004zM157.5025000000001 172.506H232.4985000000001V240.0060000000001H157.5025000000001V172.506zM337.5125 0.004H405.0125V67.506H337.5125V0.004zM247.5125000000001 82.494H322.5095V157.49H247.5125000000001V82.494zM165.0105 285V352.502C165.0105 354.532 164.2665 356.292 162.7805 357.778C161.2905 359.266 159.5325 360.008 157.5025000000001 360.008H142.5005000000001C140.4705 360.008 138.7105 359.266 137.2235000000001 357.778C135.7375 356.291 134.9935000000001 354.532 134.9935000000001 352.502V285C134.9935000000001 282.9700000000001 135.7375 281.2100000000001 137.2235000000001 279.724C138.7135 278.236 140.4715000000001 277.4940000000001 142.5015 277.4940000000001H157.5015C159.5315000000001 277.4940000000001 161.2915000000001 278.236 162.7795000000001 279.724C164.2665 281.211 165.0095 282.9700000000001 165.0095 285zM337.5125 82.494H405.0125V157.49H337.5125V82.494zM247.5125000000001 172.506H322.5095V240.0060000000001H247.5125000000001V172.506zM337.5125 172.506H405.0125V240.0060000000001H337.5125V172.506zM345.0045 285V352.502C345.0045 354.532 344.2605000000001 356.292 342.7745 357.778C341.2845000000001 359.266 339.5275000000001 360.008 337.4975 360.008H322.4955C320.4655 360.008 318.7055000000001 359.266 317.2195000000001 357.778C315.7315000000001 356.291 314.9875 354.532 314.9875 352.502V285C314.9875 282.9700000000001 315.7315000000001 281.2100000000001 317.2195000000001 279.724C318.7065 278.236 320.4655 277.4940000000001 322.4955 277.4940000000001H337.4975C339.5275000000001 277.4940000000001 341.2855 278.236 342.7735 279.724C344.2605000000001 281.211 345.0035000000001 282.9700000000001 345.0035000000001 285zM435.0025 300.002V0.004C435.0025 -8.126 432.0325000000001 -15.156 426.0925000000001 -21.088C420.1505 -27.021 413.1195 -29.991 404.9995 -29.9999999999999H74.9994999999999C66.8694999999999 -29.9999999999999 59.8394999999999 -27.0299999999999 53.9064999999999 -21.088C47.9734999999999 -15.148 45.0034999999999 -8.116 44.9944999999999 0.004V300.002C44.9944999999999 308.132 47.9644999999999 315.162 53.9064999999999 321.094C59.8464999999999 327.026 66.8784999999999 329.997 74.9984999999999 330.006H105.0014999999999V352.502C105.0014999999999 362.818 108.6714999999999 371.647 116.0115 378.988C123.3565 386.328 132.1825 390 142.5005000000001 390H157.5025000000001C167.8185 390 176.6465 386.33 183.9885000000001 378.988C191.3285 371.648 194.9985 362.818 194.9985 352.502V330.006H284.9985000000001V352.502C284.9985000000001 362.818 288.6685 371.647 296.0085000000001 378.988C303.3525 386.328 312.1825 390 322.4985000000001 390H337.5005000000001C347.8165 390 356.6455000000001 386.33 363.9865000000001 378.988C371.3265 371.648 374.9985000000001 362.818 374.9985000000001 352.502V330.006H405.0025000000001C413.1305000000001 330.006 420.1625000000002 327.036 426.0925000000001 321.094C432.0265000000001 315.154 434.9975 308.122 435.0055000000001 300.002z" />
    <glyph glyph-name="027.clock"
      unicode="&#xEA1B;"
      horiz-adv-x="480" d="M274.9264999999999 276.052V153.802C274.9264999999999 151.252 274.1065 149.1590000000001 272.4665 147.519C270.8265 145.879 268.7325 145.059 266.1834999999999 145.059H178.8584999999999C176.3104999999999 145.059 174.2165 145.879 172.5765 147.519C170.9365 149.159 170.1165 151.252 170.1165 153.799V171.271C170.1165 173.819 170.9365 175.913 172.5765 177.553C174.2165 179.193 176.3104999999999 180.013 178.8584999999999 180.013H239.9845V276.0660000000001C239.9845 278.6140000000001 240.8045 280.7080000000001 242.4445 282.348C244.0845 283.988 246.1795 284.808 248.7275 284.808H266.1975C268.7475 284.808 270.8405 283.9880000000001 272.4815 282.348C274.1215 280.7080000000001 274.9415 278.613 274.9415 276.0650000000001L274.9264999999999 276.0500000000002zM388.4365 180C388.4365 206.926 381.7965000000001 231.758 368.5185 254.496C355.2415000000001 277.234 337.2335 295.241 314.4955 308.519C291.7585 321.795 266.9255 328.4340000000001 240.0005 328.4340000000001C213.0745 328.4340000000001 188.2425 321.794 165.5055 308.518C142.7674999999999 295.238 124.7595 277.2320000000001 111.4825 254.494C98.2045 231.758 91.5645 206.926 91.5645 180C91.5645 153.074 98.2045 128.242 111.4815 105.504C124.7585 82.766 142.7665 64.759 165.5045 51.481C188.2415 38.205 213.0745 31.566 239.9995 31.566C266.9255 31.566 291.7575 38.206 314.4955 51.482C337.2355 64.7619999999999 355.2425 82.768 368.5195 105.506C381.7975 128.244 388.4365 153.076 388.4365 180.002zM449.5605000000001 180C449.5605000000001 141.983 440.1935000000001 106.92 421.4585 74.81S377.3005000000001 17.277 345.1905000000001 -1.458S278.0165000000001 -29.561 240.0005000000001 -29.561C201.9835000000001 -29.561 166.9205 -20.194 134.8105000000001 -1.459S77.2745 42.7 58.5395 74.81C39.8055 106.92 30.4395 141.983 30.4395 180C30.4395 218.017 39.8055 253.08 58.5395 285.19C77.2755 317.3 102.6995 342.723 134.8094999999999 361.4580000000001S201.9824999999999 389.561 239.9995 389.561C278.0154999999999 389.561 313.0795 380.194 345.1895 361.459S402.7225 317.302 421.4574999999999 285.1910000000001C440.1925 253.081 449.5595 218.018 449.5595 180.001z" />
    <glyph glyph-name="028.history"
      unicode="&#xEA1C;"
      horiz-adv-x="480" d="M266.2095 363.37C173.8395 363.37 97.6025 295.0830000000001 84.8645 206.32H30.3515L108.9715 101.62L187.5895 206.32H137.8515C150.0055 265.976 202.9465 311.024 266.2085 311.024C338.4825000000001 311.024 397.2325000000001 252.31 397.2325000000001 180.154C397.2325000000001 108 338.4825000000001 49.286 266.2085 49.286V-3.06C367.5415 -3.06 449.6485 78.976 449.6485 180.167C449.6485 281.3570000000001 367.5415 363.3930000000001 266.2085 363.3930000000001V363.3690000000001zM239.9955 258.666V153.963H344.8155V180.143H266.1975V258.666H239.9955z" />
    <glyph glyph-name="029.stopwatch"
      unicode="&#xEA1D;"
      horiz-adv-x="480" d="M368.8090000000001 252.266L373.507 255.574L392.067 274.132C402.277 284.317 403.511 299.805 394.7970000000001 308.52C386.081 317.235 370.5940000000001 316 360.382 305.816L341.824 287.256L337.229 280.748C320.009 292.691 300.426 301.511 279.374 306.473V337.5H292.499C299.691 337.5 305.624 343.38 305.624 350.625V376.875C305.624 384.067 299.691 390 292.499 390H187.499C180.308 390 174.375 384.067 174.375 376.875V350.625C174.375 343.38 180.308 337.5 187.5 337.5H200.625V306.472C180.805 301.826 162.275 293.7680000000001 145.789 282.822L142.691 287.2580000000001L124.131 305.8160000000001C113.921 316.001 98.434 317.236 89.719 308.52C81.004 299.805 82.239 284.317 92.449 274.132L111.034 255.574L112.924 254.182C85.938 224.048 69.375 184.305 69.375 140.625C69.375 46.387 145.763 -30 240 -30C334.238 -30 410.625 46.387 410.625 140.625C410.625 183.36 394.822 222.315 368.8090000000001 252.265zM239.999 -3.75C160.409 -3.75 95.625 61.01 95.625 140.625C95.625 220.215 160.41 285 240 285S384.375 220.215 384.375 140.625C384.375 61.009 319.5900000000001 -3.75 240 -3.75zM239.999 232.5C189.259 232.5 148.125 191.34 148.125 140.625C148.125 89.858 189.259 48.75 240 48.75C290.74 48.75 331.875 89.858 331.875 140.625C331.875 191.34 290.741 232.5 240 232.5zM226.875 206.25H253.125V127.5H226.875V206.25z" />
    <glyph glyph-name="030.rotate-right"
      unicode="&#xEA1E;"
      horiz-adv-x="480" d="M449.9155 354.9340000000001V232.484C449.9155 227.75 448.1855 223.648 444.7255 220.179C441.2675000000001 216.709 437.1655 214.979 432.4205 214.989H309.9705C302.3185 214.989 296.9405000000001 218.632 293.8385 225.917C290.7365 233.019 292.0125 239.305 297.6655 244.775L335.3795 282.489C308.4095 307.449 276.6145 319.929 239.9915 319.929C221.0415 319.929 202.9555 316.239 185.7315 308.861C168.5065 301.484 153.6095 291.509 141.0375 278.938C128.4675 266.365 118.4915 251.468 111.1145 234.243C103.7375 217.018 100.0485 198.933 100.0485 179.983C100.0485 161.033 103.7385 142.947 111.1155 125.723C118.4935 108.498 128.4685 93.6 141.0395 81.029C153.6115 68.459 168.5095 58.484 185.7335 51.106C202.9575 43.729 221.0435 40.04 239.9935000000001 40.04C261.6775000000001 40.04 282.1775000000001 44.78 301.4935000000001 54.2600000000001C320.8095 63.7400000000001 337.1165 77.133 350.4135000000001 94.4400000000001C351.6875000000001 96.265 353.7835000000001 97.357 356.7035000000001 97.7140000000001C359.2535000000001 97.7140000000001 361.5295000000001 96.8940000000001 363.5295000000001 95.2500000000001L400.9695000000001 57.5360000000001C402.6115000000001 56.0760000000001 403.4795000000001 54.2090000000001 403.5695000000001 51.9340000000001C403.6625000000002 49.6580000000001 402.9795000000002 47.6070000000001 401.5195000000001 45.7810000000001C381.6625000000002 21.7310000000001 357.6115000000001 3.0980000000001 329.3665000000001 -10.1159999999999C301.1225000000001 -23.3309999999999 271.3315000000001 -29.9379999999999 239.9945000000001 -29.9379999999999C211.5665000000001 -29.9379999999999 184.4185000000001 -24.3809999999999 158.5505000000001 -13.2679999999999C132.6835000000001 -2.1559999999999 110.3625 12.7880000000001 91.5865 31.5620000000001C72.8105000000001 50.3390000000001 57.8665000000001 72.6600000000001 46.7545 98.5280000000001C35.6395 124.393 30.0835 151.54 30.0835 179.97C30.0835 208.398 35.6395 235.546 46.7515 261.413C57.8635 287.28 72.8075 309.603 91.5835 328.378C110.3595 347.153 132.6805 362.098 158.5475 373.2080000000001C184.4155 384.3210000000001 211.5635 389.878 239.9915 389.878C266.7775000000001 389.878 292.6955000000001 384.8210000000001 317.7465 374.7080000000001C342.7965000000001 364.598 365.0735 350.338 384.5735 331.928L420.0985 367.194C425.3845 372.847 431.7625 374.122 439.2315 371.02C446.3335 367.918 449.8845 362.54 449.8845 354.888L449.9165000000001 354.9340000000001z" />
    <glyph glyph-name="031.refresh"
      unicode="&#xEA1F;"
      horiz-adv-x="480" d="M443.0975 136.27C443.0975 135.362 443.0055 134.724 442.8215 134.357C431.1585 85.52 406.7395 45.934 369.5665 15.597C332.3945 -14.74 288.8435 -29.908 238.9145 -29.908C212.3125 -29.908 186.5725 -24.898 161.6945 -14.878C136.8175 -4.8580000000001 114.6345 9.449 95.1445 28.042L59.8785 -7.224C56.4185 -10.684 52.3185 -12.414 47.5725 -12.414C42.8275 -12.414 38.7255 -10.684 35.2665 -7.224C31.8065 -3.7640000000001 30.0765 0.336 30.0765 5.0819999999999V127.5319999999999C30.0765 132.2649999999999 31.8065 136.3669999999999 35.2665 139.8369999999999C38.7265 143.307 42.8265 145.0369999999999 47.5725 145.0269999999999H170.0225C174.7565 145.0269999999999 178.8585 143.2969999999999 182.3275 139.8369999999999C185.7975 136.377 187.5275 132.2769999999999 187.5175 127.531C187.5075 122.7869999999999 185.7775 118.685 182.3275 115.225L144.8895 77.787C157.8295 65.757 172.4975 56.465 188.8955 49.914C205.2935 43.364 222.3285 40.084 240.0025 40.072C264.4205000000001 40.072 287.1965000000001 45.997 308.3285 57.844C329.4625 69.691 346.4065 85.997 359.1615 106.762C361.1615 109.864 365.9875 120.522 373.6415 138.737C375.1015 142.9310000000001 377.8345 145.0270000000001 381.8455 145.0270000000001H434.3295C436.6995 145.0270000000001 438.7495 144.16 440.4835 142.4250000000001C442.2185 140.6910000000001 443.0855 138.6400000000001 443.0855 136.2720000000001H443.1015zM449.9235 354.9340000000001V232.484C449.9235 227.75 448.1935 223.648 444.7335 220.179C441.2755 216.709 437.1735 214.979 432.4285 214.989H309.9785C305.2455 214.989 301.1435000000001 216.719 297.6735 220.179C294.2035 223.637 292.4735000000001 227.739 292.4835 232.484C292.4955 237.229 294.2235000000001 241.331 297.6735 244.79L335.3875 282.505C308.4175000000001 307.4650000000001 276.6225000000001 319.945 240.0005 319.945C215.5805 319.945 192.8065 314.02 171.6735 302.173C150.5415 290.327 133.5975 274.02 120.8435 253.255C118.8435 250.153 114.0155 239.495 106.3635 221.281C104.9035 217.088 102.1685 214.991 98.1585 214.991H43.7605C41.3935 214.991 39.3425 215.858 37.6075 217.593C35.8725 219.328 35.0055 221.379 35.0055 223.746V225.659C46.8525 274.4960000000001 71.4495 314.0830000000001 108.7955 344.4190000000001C146.1435 374.7560000000001 189.8725 389.9240000000001 239.9855 389.9240000000001C266.5855 389.9240000000001 292.4595 384.8680000000001 317.6025 374.7560000000001C342.7455 364.644 365.0665 350.384 384.5665 331.976L420.0935 367.2410000000001C423.5535 370.701 427.6535 372.4310000000001 432.3995 372.4310000000001C437.1445 372.4310000000001 441.2465 370.701 444.7055 367.2410000000001C448.1635 363.781 449.8935 359.6810000000001 449.8935 354.9350000000001H449.9234999999999z" />
    <glyph glyph-name="032.trashbin"
      unicode="&#xEA20;"
      horiz-adv-x="480" d="M187.5254999999999 223.615V66.307C187.5254999999999 63.753 186.7034999999999 61.661 185.0604999999999 60.029C183.4174999999999 58.396 181.3245 57.574 178.7824999999999 57.563H161.2955C158.7414999999999 57.563 156.6494999999999 58.383 155.0154999999999 60.028C153.3854999999999 61.67 152.5634999999999 63.7619999999999 152.5525 66.305V223.615C152.5525 226.169 153.3725 228.262 155.0165 229.895C156.6605 231.525 158.7525 232.347 161.2964999999999 232.358H178.7814999999999C181.3335 232.358 183.4264999999999 231.538 185.0584999999999 229.894C186.6904999999999 228.251 187.5124999999999 226.158 187.5235 223.614zM257.4534999999999 223.615V66.307C257.4534999999999 63.753 256.6314999999999 61.661 254.9885 60.029C253.3455 58.396 251.2525 57.574 248.7104999999999 57.563H231.2235C228.6705 57.563 226.5775 58.383 224.9454999999999 60.028C223.3134999999999 61.67 222.4925 63.7619999999999 222.4814999999999 66.305V223.615C222.4814999999999 226.169 223.3014999999999 228.262 224.9454999999999 229.895C226.5885 231.525 228.6814999999999 232.347 231.2255 232.358H248.7104999999999C251.2634999999999 232.358 253.3565 231.538 254.9885 229.894C256.6205 228.251 257.4425 226.158 257.4534999999999 223.614zM327.3635 223.615V66.307C327.3635 63.753 326.5435 61.661 324.8995 60.029C323.2565 58.396 321.1635 57.574 318.6214999999999 57.563H301.1354999999999C298.5815 57.563 296.4894999999999 58.383 294.8555 60.028C293.2255 61.67 292.4035 63.7619999999999 292.3925 66.305V223.615C292.3925 226.169 293.2124999999999 228.262 294.8555 229.895C296.4995 231.525 298.5915 232.347 301.1354999999999 232.358H318.6205C321.1735 232.358 323.2665 231.538 324.8985 229.894C326.5305 228.251 327.3525 226.158 327.3635 223.614zM362.3204999999999 25.889V284.8H117.6134999999999V25.89C117.6134999999999 21.88 118.2534999999999 18.195 119.5294999999999 14.83C120.8064999999999 11.467 122.1274999999999 9.008 123.4924999999999 7.454C124.8574999999999 5.899 125.8124999999999 5.128 126.3564999999999 5.139H353.5934999999999C354.1375 5.139 355.0934999999999 5.909 356.4584999999999 7.453C357.8234999999999 8.996 359.1445 11.455 360.4214999999999 14.83C361.6984999999999 18.206 362.3365 21.8920000000001 362.3365 25.89H362.3204999999999zM178.7835 319.755H301.1334999999999L288.0274999999999 351.713C286.7505 353.356 285.2014999999999 354.355 283.3805 354.71H196.7984999999999C194.9785 354.3450000000001 193.4284999999999 353.346 192.1524999999999 351.714L178.7795000000001 319.756zM432.2475 311.012V293.526C432.2475 290.972 431.4275 288.879 429.7835 287.246C428.1405000000001 285.616 426.0475 284.794 423.5035000000001 284.783H397.2935V25.871C397.2935 10.761 393.0135 -2.301 384.4535 -13.314C375.8935 -24.328 365.6065000000001 -29.8339999999999 353.5935 -29.8339999999999H126.3574999999999C114.3444999999999 -29.8339999999999 104.0574999999999 -24.511 95.4974999999999 -13.8639999999999C86.9374999999999 -3.2169999999999 82.6574999999999 9.6680000000001 82.6574999999999 24.7890000000001V284.8H56.4474999999999C53.8924999999999 284.8 51.7994999999999 285.622 50.1674999999999 287.265C48.5354999999999 288.908 47.7144999999999 291.001 47.7034999999999 293.543V311.03C47.7034999999999 313.5830000000001 48.5234999999999 315.676 50.1674999999999 317.308C51.8104999999999 318.94 53.9034999999999 319.761 56.4474999999999 319.772H140.8455L159.9654999999999 365.386C162.6954999999999 372.126 167.6134999999999 377.86 174.7194999999999 382.589C181.8245 387.319 189.0194999999999 389.683 196.3014999999999 389.683H283.6995C290.9824999999999 389.683 298.1764999999999 387.318 305.2824999999999 382.588C312.3864999999999 377.858 317.3044999999999 372.123 320.0365 365.384L339.1545 319.77H423.5545C426.1075 319.77 428.2005000000001 318.9500000000001 429.8325000000001 317.3060000000001C431.4645000000001 315.663 432.2855 313.57 432.2965000000001 311.026L432.2465000000001 311.011z" />
    <glyph glyph-name="033.edit__pencil__write__draw"
      unicode="&#xEA21;"
      horiz-adv-x="480" d="M397.5445000000001 206.29V48.803C397.5445000000001 34.378 385.7465000000001 22.579 371.3215 22.579H108.8095C94.3855 22.579 82.5865 34.377 82.5865 48.802V337.538H266.2965000000001L318.7465000000001 389.985H82.5845C53.6045 389.985 30.1375 366.517 30.1375 337.5370000000001V48.931C30.1375 5.395 65.4045 -29.741 108.8075 -29.741H371.1905C414.7265 -29.741 449.8625 5.526 449.8625 48.931V258.737L397.5445000000001 206.29zM140.6645 81.326L245.6895 107.55L206.3535 146.886L167.0175 186.352L140.6625 81.326zM187.7425 202.614L261.9645 128.392L444.4945 310.9220000000001C447.3815 313.8090000000001 449.0875000000001 317.484 449.3505 321.278C449.6125 325.0710000000001 448.4305 328.496 445.9375 330.978L390.2075000000001 386.574C387.9775 388.806 384.8275 389.987 381.5595 389.987C377.6215000000001 389.987 373.4355 388.281 370.2855 384.999L369.7615 384.473L317.1815000000001 332.026L187.7565 202.6L187.7445 202.614z" />
    <glyph glyph-name="034.search"
      unicode="&#xEA22;"
      horiz-adv-x="480" d="M443.3560000000001 34.83L342.956 135.23C358.028 160.13 366.8130000000001 189.23 366.8130000000001 220.557C366.8130000000001 311.257 288.17 389.914 197.4560000000001 389.914C106.613 389.914 33.086 316.386 33.086 225.544C33.086 134.844 111.728 56.186 202.4420000000001 56.186C232.5850000000001 56.186 260.899 64.314 285.156 78.6L386.086 -22.33C395.913 -32.157 412.0420000000001 -32.157 421.87 -22.33L446.914 2.714C456.8709999999999 12.544 453.1999999999999 25 443.3709999999999 34.829H443.358zM83.669 225.542C83.669 288.328 134.6560000000001 339.312 197.4420000000001 339.312C260.228 339.312 316.3280000000001 283.342 316.3280000000001 220.428C316.3280000000001 157.641 265.341 106.655 202.5550000000001 106.655C139.6410000000001 106.785 83.669 162.755 83.669 225.541z" />
    <glyph glyph-name="035.review"
      unicode="&#xEA23;"
      horiz-adv-x="480" d="M250.55184 381.6H320.33424V311.8176000000001H250.55184V381.6zM145.8734399999999 381.6H215.65584V311.8176000000001H145.8734399999999V381.6zM41.19504 381.6H110.97744V311.8176000000001H41.19504V381.6zM41.19504 276.9216H110.97744V207.1392H41.19504V276.9216zM41.19504 172.2432H110.97744V102.4608H41.19504V172.2432zM375.0571200000001 97.14912C384.33552 114.46464 390.12912 133.84608 390.12912 154.82592C390.12912 222.27552 335.48208 276.9216 268.0075200000001 276.9216S145.8859200000001 222.27456 145.8859200000001 154.82496C145.8859200000001 87.37536 200.53296 32.70336 268.0075200000001 32.70336C288.9864000000001 32.66496 308.48112 38.45952 325.72272 47.81376L389.4696000000001 -15.93408C396.2136 -22.74048 407.3678400000001 -22.74048 414.1377600000001 -15.93408L438.8049600000001 8.77152C445.61136 15.51552 445.5489600000001 26.60832 438.8049600000001 33.41472L375.0571200000001 97.1616V97.1491200000001zM349.09584 123.1104C340.23504 100.56 322.3377600000001 82.6608000000001 299.74896 73.7616000000001C289.87344 69.8832000000001 279.16272 67.5888000000001 267.99504 67.5888000000001C219.87696 67.5504 180.75984 106.74528 180.83472 154.8240000000001C180.7713599999999 202.9180800000001 219.8779199999999 242.0620800000001 267.99504 242.0236800000001C316.11312 242.0620800000001 355.23024 202.9180800000001 355.23024 154.8249600000001C355.23024 143.6198400000001 352.92432 132.9849600000001 349.09584 123.1094400000001z" />
    <glyph glyph-name="036.filter"
      unicode="&#xEA24;"
      horiz-adv-x="480" d="M447.877 377.875C451.252 369.748 449.8640000000001 362.808 443.713 357.057L297.086 210.427V-10.247C297.086 -18.5749999999999 293.2220000000001 -24.427 285.4940000000001 -27.802C282.9190000000001 -28.79 280.444 -29.284 278.067 -29.284C272.7150000000001 -29.284 268.252 -27.402 264.677 -23.638L188.547 52.492C184.7839999999999 56.255 182.9019999999999 60.719 182.9019999999999 65.882V210.428L36.2699999999999 357.058C30.1199999999999 362.808 28.7319999999999 369.748 32.1069999999999 377.875C35.483 385.603 41.3339999999999 389.467 49.6609999999999 389.467H430.338C438.666 389.467 444.5180000000001 385.603 447.8930000000001 377.875H447.8760000000001z" />
    <glyph glyph-name="037.ellipsis"
      unicode="&#xEA25;"
      horiz-adv-x="480" d="M144.6385 209.18V151.957C144.6385 144.014 141.8555 137.261 136.2935 131.697C130.7305 126.137 123.9775 123.354 116.0335 123.354H58.8125C50.8695 123.354 44.1165 126.136 38.5525 131.698C32.9905 137.26 30.2085 144.014 30.2085 151.958V209.18C30.2085 217.123 32.9885 223.877 38.5525 229.44C44.1155 235.002 50.8685 237.783 58.8125 237.783H116.0345C123.9775 237.783 130.7305 235.003 136.2945 229.439C141.8545 223.876 144.6375 217.122 144.6375 209.179zM297.2145 209.18V151.957C297.2145 144.014 294.4325 137.261 288.8705 131.697C283.3075 126.137 276.5545 123.354 268.6105 123.354H211.3885C203.4455 123.354 196.6925 126.136 191.1285 131.698C185.5665 137.261 182.7855 144.014 182.7855 151.958V209.18C182.7855 217.123 185.5655 223.877 191.1295 229.44C196.6935 235.002 203.4465 237.783 211.3895 237.783H268.6125C276.5555 237.783 283.3085 235.003 288.8725 229.439C294.4325 223.876 297.2155 217.122 297.2155 209.179zM449.7915000000001 209.18V151.957C449.7915000000001 144.014 447.0095 137.261 441.4475 131.697C435.8835000000001 126.137 429.1305 123.354 421.1875 123.354H363.9645C356.0215 123.354 349.2685 126.136 343.7045 131.698C338.1425000000001 137.261 335.3615 144.014 335.3615 151.958V209.18C335.3615 217.123 338.1415 223.877 343.7055000000001 229.44C349.2685 235.002 356.0215 237.783 363.9655 237.783H421.1875C429.1304999999999 237.783 435.8835000000001 235.003 441.4474999999999 229.439C447.0075 223.876 449.7905 217.122 449.7905 209.179z" />
    <glyph glyph-name="038.check-circle-lite"
      unicode="&#xEA26;"
      horiz-adv-x="480" d="M240.0005 390C124.0405 390 30.1065 296.08 30.1065 180.106C30.1065 64.226 124.0265 -29.787 240.0005 -29.787C355.8805 -29.787 449.8935 64.226 449.8935 180.106C449.8934999999999 296.0660000000001 355.8805 390 240.0005 390zM204.3185 169.093L141.6165 215.27L116.4285 188.077L207.4665 82.174L221.6265 97.57L366.9725 254.645L341.4405 281.665L204.3065 169.108L204.3185 169.094zM240.0005 -3.551C138.7335 -3.551 56.3435 78.8249999999999 56.3435 180.105S138.7195 363.763 240.0005 363.763C341.1875 363.763 423.6575000000001 281.387 423.6575000000001 180.106C423.6575000000001 78.826 341.1875 -3.551 240.0015000000001 -3.551z" />
    <glyph glyph-name="039.check-circle"
      unicode="&#xEA27;"
      horiz-adv-x="480" d="M449.213 180.42C449.213 64.918 355.503 -28.793 240.0000000000001 -28.793C124.402 -28.793 30.787 64.917 30.787 180.419C30.787 296.015 124.417 389.631 239.999 389.631C355.499 389.631 449.211 296.001 449.211 180.418zM204.429 169.435L141.923 215.458L116.817 188.348L207.567 82.778L221.689 98.115L366.567 254.687L341.107 281.621L204.415 169.423L204.429 169.436z" />
    <glyph glyph-name="040.add__plus-sign"
      unicode="&#xEA28;"
      horiz-adv-x="480" d="M427.973 216.468H276.24V368.202C276.1120000000001 388.218 260.0160000000001 389.914 240.0000000000001 389.914C219.983 389.914 203.902 388.218 203.902 368.202V216.468H52.169C32.152 216.468 30.456 200.244 30.456 180.371S32.152 144.274 52.169 144.274H203.902V-7.46C203.902 -27.477 220.126 -29.173 240.0000000000001 -29.173C259.873 -29.173 276.097 -27.477 276.097 -7.46V144.273H427.832C447.848 144.273 449.544 160.497 449.544 180.3710000000001S447.848 216.4690000000001 427.96 216.4690000000001H427.974z" />
    <glyph glyph-name="041.plus-circle"
      unicode="&#xEA29;"
      horiz-adv-x="480" d="M362.4330000000001 162.505V197.495C362.4330000000001 202.23 360.703 206.332 357.2430000000001 209.801C353.785 213.271 349.6830000000001 215.001 344.938 214.991H274.974V284.9550000000001C274.974 289.6900000000001 273.244 293.7920000000001 269.7840000000001 297.261C266.326 300.731 262.224 302.461 257.479 302.451H222.489C217.755 302.451 213.653 300.721 210.1829999999999 297.261C206.713 293.8010000000001 204.983 289.701 204.993 284.9550000000001V214.991H135.03C130.295 214.991 126.193 213.261 122.724 209.801C119.254 206.343 117.524 202.241 117.534 197.496V162.506C117.534 157.771 119.264 153.6690000000001 122.724 150.2000000000001C126.184 146.73 130.2839999999999 145.0000000000001 135.03 145.0100000000001H204.994V75.0460000000001C204.994 70.311 206.7239999999999 66.2090000000001 210.184 62.7400000000001C213.642 59.27 217.744 57.5400000000001 222.489 57.5500000000001H257.479C262.2140000000001 57.5500000000001 266.316 59.2800000000001 269.785 62.7400000000001C273.2550000000001 66.2000000000001 274.983 70.3000000000001 274.973 75.0460000000001V145.01H344.937C349.672 145.01 353.774 146.74 357.243 150.2C360.713 153.658 362.443 157.76 362.433 162.505zM449.908 180C449.908 141.918 440.525 106.796 421.76 74.633C402.994 42.469 377.53 17.005 345.367 -1.76C313.205 -20.526 278.082 -29.908 239.9999999999999 -29.908C201.9199999999999 -29.908 166.7959999999999 -20.526 134.6329999999999 -1.76C102.4699999999999 17.005 77.0059999999999 42.47 58.2399999999999 74.633C39.474 106.796 30.091 141.918 30.091 180C30.091 218.082 39.474 253.204 58.239 285.367C77.005 317.531 102.469 342.995 134.632 361.76C166.795 380.526 201.918 389.908 239.999 389.908C278.081 389.908 313.204 380.526 345.367 361.76C377.531 342.995 402.995 317.5300000000001 421.761 285.367C440.526 253.204 449.9090000000001 218.082 449.9090000000001 180z" />
    <glyph glyph-name="042.times"
      unicode="&#xEA2A;"
      horiz-adv-x="480" d="M449.2255 52.647C449.2255 43.257 445.9355000000001 35.274 439.3575 28.697L391.4555000000001 -19.206C384.8775000000001 -25.784 376.8935 -29.074 367.5055000000001 -29.074C358.1155000000001 -29.074 350.1325000000001 -25.784 343.5555000000001 -19.206L239.9995 84.348L136.4465 -19.206C129.8665 -25.784 121.8845 -29.074 112.4965 -29.074C103.1065 -29.074 95.1235 -25.784 88.5445 -19.206L40.6445 28.696C34.0645 35.2739999999999 30.7745 43.258 30.7745 52.646C30.7745 62.036 34.0645 70.019 40.6445 76.596L144.1965 180.151L40.6425 283.706C34.0645 290.286 30.7755 298.268 30.7755 307.656C30.7755 317.046 34.0655 325.029 40.6435 331.608L88.5455 379.51C95.1255 386.087 103.1075 389.376 112.4955 389.376C121.8855 389.376 129.8685 386.086 136.4475 379.509L240.0015 275.954L343.5545 379.51C350.1325000000001 386.087 358.1165000000001 389.376 367.5045 389.376C376.8945000000001 389.376 384.8775000000001 386.086 391.4545000000001 379.509L439.3575 331.606C445.9375000000001 325.026 449.2255 317.044 449.2255 307.656C449.2255 298.266 445.9355000000001 290.283 439.3575 283.704L335.8025 180.15L439.3575 76.597C445.9375000000001 70.019 449.2255 62.035 449.2255 52.647z" />
    <glyph glyph-name="043.times-circle"
      unicode="&#xEA2B;"
      horiz-adv-x="480" d="M344.126 118.224C344.126 122.959 342.396 127.061 338.938 130.531L289.468 180L338.938 229.47C342.398 232.93 344.128 237.03 344.128 241.776C344.128 246.694 342.398 250.883 338.938 254.342L314.341 278.939C310.881 282.3970000000001 306.693 284.127 301.775 284.127C297.039 284.127 292.937 282.3970000000001 289.468 278.937L239.998 229.467L190.528 278.937C187.0699999999999 282.3970000000001 182.968 284.127 178.223 284.127C173.305 284.127 169.1159999999999 282.3970000000001 165.6569999999999 278.937L141.06 254.341C137.6 250.881 135.87 246.693 135.87 241.775C135.87 237.04 137.6 232.938 141.06 229.468L190.53 179.998L141.06 130.528C137.6 127.0680000000001 135.87 122.968 135.87 118.222C135.87 113.304 137.6 109.115 141.06 105.6560000000001L165.6569999999999 81.0590000000001C169.117 77.6010000000001 173.305 75.8710000000001 178.223 75.8710000000001C182.958 75.8710000000001 187.06 77.6010000000001 190.529 81.0610000000001L239.999 130.5310000000001L289.4690000000001 81.061C292.9270000000001 77.6010000000001 297.0290000000001 75.871 301.7740000000001 75.871C306.691 75.871 310.8800000000001 77.6010000000001 314.3390000000001 81.061L338.936 105.657C342.396 109.117 344.126 113.3050000000001 344.126 118.223zM449.9090000000001 180C449.9090000000001 141.918 440.5260000000001 106.796 421.761 74.633C402.995 42.469 377.531 17.005 345.3680000000001 -1.76C313.2060000000001 -20.526 278.0830000000001 -29.908 240.001 -29.908C201.9209999999999 -29.908 166.797 -20.526 134.634 -1.76C102.471 17.005 77.007 42.47 58.241 74.633C39.474 106.796 30.091 141.918 30.091 180C30.091 218.082 39.474 253.204 58.239 285.367C77.005 317.531 102.469 342.995 134.632 361.76C166.795 380.526 201.918 389.908 239.999 389.908C278.081 389.908 313.204 380.526 345.367 361.76C377.531 342.995 402.995 317.5300000000001 421.761 285.367C440.526 253.204 449.9090000000001 218.082 449.9090000000001 180z" />
    <glyph glyph-name="044.minus-circle"
      unicode="&#xEA2C;"
      horiz-adv-x="480" d="M362.4330000000001 162.505V197.495C362.4330000000001 202.23 360.703 206.332 357.2430000000001 209.801C353.785 213.271 349.6830000000001 215.001 344.938 214.991H135.03C130.295 214.991 126.193 213.261 122.724 209.801C119.254 206.343 117.524 202.241 117.534 197.496V162.506C117.534 157.771 119.264 153.6690000000001 122.724 150.2000000000001C126.184 146.73 130.2839999999999 145.0000000000001 135.03 145.0100000000001H344.938C349.673 145.0100000000001 353.775 146.7400000000001 357.244 150.2000000000001C360.714 153.6580000000001 362.444 157.7600000000001 362.434 162.5050000000001zM449.908 180C449.908 141.918 440.525 106.796 421.76 74.633C402.994 42.469 377.53 17.005 345.367 -1.76C313.205 -20.526 278.082 -29.908 239.9999999999999 -29.908C201.9199999999999 -29.908 166.7959999999999 -20.526 134.6329999999999 -1.76C102.4699999999999 17.005 77.0059999999999 42.47 58.2399999999999 74.633C39.474 106.796 30.091 141.918 30.091 180C30.091 218.082 39.474 253.204 58.239 285.367C77.005 317.531 102.469 342.995 134.632 361.76C166.795 380.526 201.918 389.908 239.999 389.908C278.081 389.908 313.204 380.526 345.367 361.76C377.531 342.995 402.995 317.5300000000001 421.761 285.367C440.526 253.204 449.9090000000001 218.082 449.9090000000001 180z" />
    <glyph glyph-name="045.no-entry"
      unicode="&#xEA2D;"
      horiz-adv-x="480" d="M240.0000000000001 389.53C123.814 389.53 30.47 296.2 30.47 180S123.8 -29.53 240.0000000000001 -29.53C356.1860000000002 -29.53 449.53 63.8 449.53 180S356.2000000000001 389.53 240.0000000000001 389.53zM240.0000000000001 332.386C272.3860000000001 332.386 300.957 322.856 325.7140000000001 305.714L114.286 94.286C97.143 117.143 87.614 147.614 87.614 180C87.614 263.814 156.186 332.386 240.0000000000001 332.386zM240.0000000000001 27.614C207.614 27.614 179.043 37.144 154.286 54.2860000000001L365.7140000000001 265.7140000000001C382.8570000000001 240.9570000000001 392.3860000000001 210.4710000000001 392.3860000000001 180.0000000000001C392.3860000000001 94.2860000000001 323.8140000000001 27.614 240.0000000000002 27.614z" />
    <glyph glyph-name="046.caution__warning"
      unicode="&#xEA2E;"
      horiz-adv-x="480" d="M443.9625 35.006L263.9285 350.11C257.3655 361.516 248.7165 367.29 240.0685 367.29C231.4185 367.29 222.7555 361.648 216.2055 350.11L36.0375 35.007C22.9275 12.064 34.2005 -6.691 60.9495 -6.691H418.9195000000001C445.9295000000001 -6.691 457.0735 12.064 443.9615 35.007zM63.8365 23.206L240.0665 331.616L416.2965 23.206H63.8225H63.8355zM240.0665 98.084C223.5415 98.084 210.1665 84.7099999999999 210.1665 68.1859999999999C210.1665 51.6609999999999 223.5415 38.2859999999999 240.0665 38.2859999999999C256.5905000000001 38.2859999999999 269.9645 51.6609999999999 269.9645 68.1859999999999C269.9645 84.7099999999999 256.5905 98.084 240.0665 98.084zM225.1165 113.0339999999999H255.0165L269.9645 247.696H210.1675L225.1175 113.0339999999999z" />
    <glyph glyph-name="047.exclamation-circle"
      unicode="&#xEA2F;"
      horiz-adv-x="480" d="M240 389.908C278.082 389.908 313.2040000000001 380.526 345.3680000000001 361.76C377.5310000000001 342.995 402.995 317.53 421.76 285.367C440.5260000000001 253.204 449.908 218.082 449.908 180C449.908 141.918 440.5260000000001 106.796 421.76 74.633C402.995 42.469 377.53 17.005 345.3680000000001 -1.76C313.2040000000001 -20.526 278.082 -29.908 240 -29.908C201.92 -29.908 166.796 -20.526 134.633 -1.76C102.4709999999999 17.005 77.0059999999999 42.47 58.241 74.633C39.475 106.796 30.092 141.918 30.092 180C30.092 218.082 39.475 253.204 58.24 285.367C77.005 317.531 102.47 342.995 134.633 361.76C166.797 380.526 201.92 389.908 240.001 389.908zM274.99 49.071V101.006C274.99 103.556 274.17 105.7000000000001 272.5260000000001 107.436C270.8830000000001 109.169 268.8780000000001 110.0360000000001 266.51 110.0360000000001H214.026C211.658 110.0360000000001 209.5609999999999 109.1230000000001 207.736 107.2960000000001C205.908 105.47 204.996 103.3730000000001 204.996 101.006V49.072C204.996 46.706 205.908 44.609 207.736 42.782C209.5609999999999 40.956 211.658 40.042 214.026 40.042H266.51C268.8780000000001 40.042 270.8830000000001 40.91 272.5260000000001 42.645C274.169 44.38 274.99 46.522 274.99 49.073zM274.4400000000001 143.098L279.352 312.828C279.352 315.011 278.439 316.648 276.612 317.741C274.786 319.201 272.597 319.931 270.0460000000001 319.931H209.908C207.3579999999999 319.931 205.1679999999999 319.201 203.342 317.741C201.515 316.649 200.6019999999999 315.011 200.6019999999999 312.828L205.2549999999999 143.098C205.2549999999999 141.271 206.1689999999999 139.674 207.9949999999999 138.308C209.8219999999999 136.94 212.0099999999999 136.256 214.5609999999999 136.256H265.131C267.683 136.256 269.8259999999999 136.94 271.5610000000001 138.306C273.295 139.674 274.2539999999999 141.271 274.438 143.098z" />
    <glyph glyph-name="048.help-circle"
      unicode="&#xEA30;"
      horiz-adv-x="480" d="M388.57 328.57C306.67 410.4700000000001 173.33 410.4700000000001 91.43 328.57C9.53 246.67 9.53 113.33 91.43 31.43C173.33 -50.47 306.67 -50.47 388.57 31.43C470.47 113.3300000000001 470.47 246.67 388.57 328.57zM230.47 12.386C207.614 12.386 188.57 31.429 188.57 54.2859999999999S207.614 96.1859999999999 230.47 96.1859999999999C253.33 96.1859999999999 272.37 77.1429999999999 272.37 54.2859999999999C272.37 29.5289999999999 253.33 12.386 230.47 12.386zM259.043 155.243V132.386C259.043 120.956 255.229 117.143 243.8 117.143H213.33C201.9 117.143 198.086 120.957 198.086 132.386V183.814C198.086 197.144 211.414 200.957 222.843 204.771C224.743 204.771 228.557 206.671 232.371 206.671C247.615 212.387 257.1310000000001 218.101 257.1310000000001 235.244C257.1310000000001 240.958 257.1310000000001 258.101 230.4580000000001 258.101C213.315 258.101 198.072 252.387 190.458 248.571C184.744 246.671 182.844 244.758 180.93 244.758C175.214 244.758 171.4 248.572 169.5 252.372L159.97 279.045C158.07 282.859 158.07 284.759 158.07 286.659C158.07 305.702 219.03 317.131 239.9700000000001 317.131C291.4000000000001 317.131 325.6860000000001 284.7440000000001 325.6860000000001 235.231C325.6860000000001 179.987 285.6860000000001 164.758 259.014 155.231L259.044 155.244z" />
    <glyph glyph-name="049.info-circle"
      unicode="&#xEA31;"
      horiz-adv-x="480" d="M309.964 48.81V92.54C309.964 95.092 309.142 97.19 307.499 98.832C305.857 100.474 303.759 101.296 301.209 101.296H274.974V241.24C274.974 243.79 274.154 245.888 272.51 247.53C270.867 249.173 268.77 249.995 266.22 249.995H178.7599999999999C176.2099999999999 249.995 174.112 249.173 172.47 247.531C170.826 245.889 170.005 243.791 170.005 241.241V197.511C170.005 194.961 170.8249999999999 192.863 172.468 191.221C174.1109999999999 189.578 176.208 188.756 178.7579999999999 188.756H204.993V101.2960000000001H178.759C176.209 101.2960000000001 174.1109999999999 100.4760000000001 172.4689999999999 98.833C170.8249999999999 97.1900000000001 170.004 95.093 170.004 92.543V48.813C170.004 46.261 170.824 44.163 172.4669999999999 42.521C174.11 40.879 176.2069999999999 40.057 178.757 40.057H301.207C303.757 40.057 305.855 40.879 307.497 42.521C309.14 44.164 309.962 46.261 309.962 48.811zM274.974 293.7100000000001V337.44C274.974 339.99 274.154 342.087 272.51 343.73C270.867 345.372 268.77 346.194 266.22 346.194H213.7339999999999C211.184 346.194 209.086 345.372 207.444 343.73C205.8 342.087 204.9789999999999 339.99 204.9789999999999 337.44V293.7100000000001C204.9789999999999 291.158 205.799 289.06 207.4429999999999 287.418C209.086 285.776 211.1829999999999 284.954 213.733 284.954H266.219C268.769 284.954 270.867 285.776 272.509 287.418C274.153 289.0610000000001 274.974 291.158 274.974 293.7080000000001zM449.908 180C449.908 141.918 440.525 106.796 421.76 74.633C402.994 42.469 377.53 17.005 345.367 -1.76C313.205 -20.526 278.082 -29.908 239.9999999999999 -29.908C201.9199999999999 -29.908 166.7959999999999 -20.526 134.6329999999999 -1.76C102.4699999999999 17.005 77.0059999999999 42.47 58.2399999999999 74.633C39.474 106.796 30.091 141.918 30.091 180C30.091 218.082 39.474 253.204 58.239 285.367C77.005 317.531 102.469 342.995 134.632 361.76C166.795 380.526 201.918 389.908 239.999 389.908C278.081 389.908 313.204 380.526 345.367 361.76C377.531 342.995 402.995 317.5300000000001 421.761 285.367C440.526 253.204 449.9090000000001 218.082 449.9090000000001 180z" />
    <glyph glyph-name="050.hazard"
      unicode="&#xEA32;"
      horiz-adv-x="480" d="M240.002 389.914C124.129 389.914 30.142 295.929 30.142 180.057C30.142 64.187 124.129 -29.8 240.002 -29.8C355.872 -29.8 449.858 64.186 449.858 180.0570000000001C449.858 295.9290000000001 355.872 389.9140000000001 240.001 389.9140000000001zM326.642 48.729L239.872 180.07L152.442 49.386C110.372 77.7 82.572 125.67 82.572 180.07H239.729L145.215 305.643C171.558 325.57 204.458 337.5 239.985 337.5C275.515 337.5 308.415 325.7 334.7580000000001 305.6430000000001L239.8580000000001 180.071H397.415C397.415 125.287 369.2290000000001 76.915 326.629 48.731H326.6430000000001z" />
    <glyph glyph-name="051.export"
      unicode="&#xEA33;"
      horiz-adv-x="480" d="M426.1025 114.086H332.6375C329.1795 104.872 323.3655 97.301 315.2075 91.372C307.0395000000001 85.455 297.9405 82.48 287.8975 82.48H193.3195C183.2665 82.48 174.1665 85.444 166.0095 91.372C157.8525 97.302 152.0395 104.872 148.5795 114.086H53.8875C47.2915 114.086 41.6845 111.789 37.0775 107.181C32.4705 102.5750000000001 30.1605 96.9810000000001 30.1605 90.3970000000001V19.772C30.1605 13.1900000000001 32.4705 7.5820000000001 37.0775 2.9880000000001C41.6845 -1.6199999999999 47.2915 -3.9169999999999 53.8875 -3.9169999999999H426.1135C432.7085 -3.9169999999999 438.3155 -1.6189999999999 442.9235 2.9890000000001C447.5295 7.5960000000001 449.8395 13.1910000000001 449.8395 19.7740000000001V90.4000000000001C449.8395 96.9830000000001 447.5295 102.5670000000001 442.9225 107.1850000000001C438.3155 111.8050000000001 432.7085 114.0910000000001 426.1125 114.0910000000001H426.1025zM338.8525 22.173C349.7225000000001 22.173 358.5455 30.996 358.5455 41.865C358.5455 52.735 349.7225000000001 61.558 338.8535 61.558C327.9835 61.558 319.1605 52.734 319.1605 41.865C319.1605 30.995 327.9845000000001 22.173 338.8535 22.173zM404.5025000000001 22.173C415.3725000000001 22.173 424.1955000000001 30.996 424.1955000000001 41.865C424.1955000000001 52.735 415.3715000000001 61.558 404.5025000000001 61.558C393.6325000000001 61.558 384.8105000000001 52.734 384.8105000000001 41.865C384.8105000000001 30.995 393.6335000000001 22.173 404.5025000000001 22.173zM200.4075 232.16V142.855C200.4075 138.57 201.9705 134.859 205.1075 131.735C208.2325 128.609 211.9435 127.035 216.2275 127.035H263.4615C267.7465000000001 127.035 271.4465 128.597 274.5815 131.735C277.7075 134.859 279.2815 138.57 279.2815 142.855L279.3965 232.173H342.2415000000001C349.1585 232.173 354.0295 235.47 356.8315 242.065C359.6474999999999 248.487 358.4755 254.185 353.3635 259.125L251.4075 358.876C248.4445 362.002 244.7335 363.576 240.2875 363.576C235.8405 363.576 232.1295 362.013 229.1655 358.876L127.6125 259.126C122.4995 254.176 121.3505 248.488 124.1425 242.066C126.9575 235.471 131.8065 232.174 138.7345 232.174H200.4195L200.4095 232.162z" />
    <glyph glyph-name="052.import"
      unicode="&#xEA34;"
      horiz-adv-x="480" d="M426.1025 114.523H332.6375C329.1795 105.309 323.3655 97.737 315.2075 91.809C307.0395000000001 85.891 297.9405 82.915 287.8975 82.915H193.3195C183.2665 82.915 174.1665 85.879 166.0095 91.808C157.8525 97.735 152.0395 105.308 148.5795 114.521H53.8875C47.2915 114.521 41.6845 112.223 37.0775 107.616C32.4705 103.009 30.1605 97.4140000000001 30.1605 90.83V20.206C30.1605 13.623 32.4705 8.016 37.0775 3.42C41.6845 -1.187 47.2915 -3.485 53.8875 -3.485H426.1135C432.7085 -3.485 438.3155 -1.187 442.9235 3.42C447.5295 8.027 449.8395 13.623 449.8395 20.206V90.83C449.8395 97.4140000000001 447.5295 102.997 442.9225 107.616C438.3155 112.2360000000001 432.7085 114.521 426.1125 114.521H426.1025zM338.8525 22.609C349.7225000000001 22.609 358.5455 31.432 358.5455 42.301C358.5455 53.1710000000001 349.7225000000001 61.9930000000001 338.8535 61.9930000000001C327.9835 61.9930000000001 319.1605 53.1700000000001 319.1605 42.301C319.1605 31.431 327.9845000000001 22.6080000000001 338.8535 22.6080000000001zM404.5025000000001 22.609C415.3725000000001 22.609 424.1955000000001 31.432 424.1955000000001 42.301C424.1955000000001 53.1710000000001 415.3715000000001 61.9930000000001 404.5025000000001 61.9930000000001C393.6325000000001 61.9930000000001 384.8105000000001 53.1700000000001 384.8105000000001 42.301C384.8105000000001 31.431 393.6335000000001 22.6080000000001 404.5025000000001 22.6080000000001zM280.5345 258.86V348.168C280.5345 352.453 278.9715 356.164 275.8345 359.288C272.7095 362.414 268.9985 363.988 264.7145 363.988H217.4815C213.1955 363.988 209.4965 362.426 206.3595 359.288C203.2345 356.164 201.6595 352.453 201.6595 348.168L201.5455 258.851H138.6995C131.7835 258.851 126.9115 255.554 124.1095 248.959C121.2935 242.537 122.4655 236.839 127.5795 231.899L229.5335 132.149C232.4975 129.023 236.2085 127.449 240.6535 127.449C245.1015 127.449 248.8135 129.012 251.7765 132.149L353.3285 231.899C358.4415 236.849 359.5905 242.537 356.7985 248.959C353.9835 255.554 349.1355 258.852 342.2085 258.852H280.5215L280.5335 258.8640000000001z" />
    <glyph glyph-name="053.download"
      unicode="&#xEA35;"
      horiz-adv-x="480" d="M449.256 125.8C445.986 156.343 426.186 181.9 398.786 193.3C398.913 195.786 399.186 198.286 399.186 200.77C399.186 204.7 399.056 208.5 398.656 212.3C392.886 275.743 339.413 325.557 274.399 325.557C224.727 325.557 181.856 296.457 161.799 254.387C152.099 261.987 139.913 266.443 126.542 266.443C94.685 266.443 68.999 240.613 68.999 208.9V206.93A53.017 53.017 0 0 1 71.627 191.73C49.214 178.486 33.487 155.1570000000001 30.6 128.03C30.47 125.143 30.343 122.1300000000001 30.343 119.114C30.343 84.386 51.313 54.5 81.328 41.514C91.158 37.186 102.044 34.829 113.444 34.7H239.941C236.926 35.1 234.041 36.67 231.684 39.414L158.54 126.457C153.168 132.887 155.654 137.987 163.91 137.987H217.256V219.257H264.842V137.987H318.3120000000001C326.57 137.987 329.0560000000001 132.743 323.6850000000001 126.457L250.669 39.287C248.312 36.529 245.426 34.957 242.412 34.571H362.486C363.926 34.444 365.499 34.315 366.9420000000001 34.315C383.07 34.315 398.0120000000001 38.901 410.727 46.901C434.057 61.444 449.657 87.401 449.657 117.031C449.787 120.044 449.657 122.931 449.2570000000001 125.815V125.801z" />
    <glyph glyph-name="054.upload"
      unicode="&#xEA36;"
      horiz-adv-x="480" d="M398.6915 193.3C398.8215 195.786 399.0915 198.286 399.0915 200.77C399.0915 269.714 343.2515 325.557 274.3075 325.557C224.6355 325.557 181.7645 296.457 161.7075 254.387C152.0075 261.987 139.8215 266.443 126.4505 266.443C94.5905 266.443 68.9065 240.613 68.9065 208.9C68.9065 202.87 69.8205 197.1 71.5345 191.73C46.7645 177.043 30.1205 150.043 30.1205 119.114C30.1205 72.8440000000001 67.2205 35.357 113.3505 34.7H215.0775V115.97H161.6075C153.3495 115.97 150.8635 121.2140000000001 156.2345 127.5L229.2495 214.67C234.6195 221.1 243.2765 221.1 248.6495 214.67L321.6625 127.5C327.0325000000001 121.07 324.5485000000001 115.97 316.2905 115.97H262.8215V34.7H362.8355C364.2785 34.5700000000001 365.8505 34.443 367.2925 34.443C412.9085 34.443 449.8795 71.4 449.8795 117.0290000000001C449.6225 151.369 428.6515 180.8560000000001 398.7655000000001 193.3130000000001L398.6935000000001 193.299z" />
    <glyph glyph-name="055.comment"
      unicode="&#xEA37;"
      horiz-adv-x="480" d="M372.0010000000001 338.757C402.0150000000001 338.757 426.401 314.371 426.401 284.3570000000001V135.457C426.401 105.443 402.0150000000001 81.057 372.0010000000001 81.057H175.258L168.444 74.114C142.101 47.114 116.544 34.129 97.274 27.971C102.774 36.101 106.974 44.487 109.987 53.144L117.987 76.601L94.001 82.887C70.144 89.172 53.501 110.801 53.501 135.444V284.3440000000001C53.501 314.358 77.887 338.7440000000001 107.901 338.7440000000001H372.014L372.0010000000001 338.7580000000001zM372.0010000000001 361.957H107.887C65.03 361.957 30.287 327.214 30.287 284.3570000000001V135.457C30.287 99.414 54.801 69.257 88.087 60.487C82.587 44.357 70.257 26.8 46.53 8.843C40.373 4.129 48.758 -1.114 65.93 -1.114C92.4 -1.114 139.6 11.343 185.073 57.7429999999999H372.113C414.973 57.7429999999999 449.713 92.471 449.713 135.343V284.37C449.586 327.23 414.843 361.9700000000001 371.9860000000001 361.9700000000001L372.0000000000001 361.957z" />
    <glyph glyph-name="056.chat"
      unicode="&#xEA38;"
      horiz-adv-x="480" d="M372.0010000000001 338.757C402.0150000000001 338.757 426.401 314.371 426.401 284.3570000000001V135.457C426.401 105.443 402.0150000000001 81.057 372.0010000000001 81.057H175.258L168.444 74.114C142.101 47.114 116.544 34.129 97.274 27.971C102.774 36.101 106.974 44.487 109.987 53.144L117.987 76.601L94.001 82.887C70.144 89.172 53.501 110.801 53.501 135.444V284.3440000000001C53.501 314.358 77.887 338.7440000000001 107.901 338.7440000000001H372.014L372.0010000000001 338.7580000000001zM372.0010000000001 361.957H107.887C65.03 361.957 30.287 327.214 30.287 284.3570000000001V135.457C30.287 99.414 54.801 69.257 88.087 60.487C82.587 44.357 70.257 26.8 46.53 8.843C40.373 4.129 48.758 -1.114 65.93 -1.114C92.4 -1.114 139.6 11.343 185.073 57.7429999999999H372.113C414.973 57.7429999999999 449.713 92.471 449.713 135.343V284.37C449.586 327.23 414.843 361.9700000000001 371.9860000000001 361.9700000000001L372.0000000000001 361.957zM176.014 207.63C176.014 192.558 163.711 180.337 148.55 180.337C133.388 180.337 121.087 192.557 121.087 207.629C121.087 222.699 133.377 234.919 148.55 234.919C163.723 234.919 176.013 222.699 176.013 207.629zM359.099 207.63C359.099 192.558 346.7990000000001 180.337 331.636 180.337C316.474 180.337 304.173 192.557 304.173 207.629C304.173 222.699 316.463 234.919 331.635 234.919C346.808 234.919 359.098 222.699 359.098 207.629zM267.5560000000001 207.63C267.5560000000001 192.558 255.2560000000001 180.337 240.0930000000001 180.337S212.629 192.557 212.629 207.629C212.629 222.699 224.919 234.919 240.092 234.919C255.264 234.919 267.5540000000001 222.699 267.5540000000001 207.629z" />
    <glyph glyph-name="057.comment-attachment"
      unicode="&#xEA39;"
      horiz-adv-x="480" d="M372.0010000000001 338.757C402.0150000000001 338.757 426.401 314.371 426.401 284.3570000000001V135.457C426.401 105.443 402.0150000000001 81.057 372.0010000000001 81.057H175.258L168.444 74.114C142.101 47.114 116.544 34.129 97.274 27.971C102.774 36.101 106.974 44.487 109.987 53.144L117.987 76.601L94.001 82.887C70.144 89.172 53.501 110.801 53.501 135.444V284.3440000000001C53.501 314.358 77.887 338.7440000000001 107.901 338.7440000000001H372.014L372.0010000000001 338.7580000000001zM372.0010000000001 361.957H107.887C65.03 361.957 30.287 327.214 30.287 284.3570000000001V135.457C30.287 99.414 54.801 69.257 88.087 60.487C82.587 44.357 70.257 26.8 46.53 8.843C40.373 4.129 48.758 -1.114 65.93 -1.114C92.4 -1.114 139.6 11.343 185.073 57.7429999999999H372.113C414.973 57.7429999999999 449.713 92.471 449.713 135.343V284.37C449.586 327.23 414.843 361.9700000000001 371.9860000000001 361.9700000000001L372.0000000000001 361.957zM228.344 277.1430000000001C228.2140000000001 277.271 228.087 277.4 227.944 277.543C213.914 291.171 191.374 290.786 177.744 276.886C164.114 262.986 164.244 240.843 177.744 226.943C177.874 226.813 178.001 226.686 178.001 226.543L178.401 226.143L270.944 135.3V135.17L271.73 134.386C280.2440000000001 126.129 293.887 126.386 302.273 134.786C310.5290000000001 143.3 310.5290000000001 156.943 302.1430000000001 165.329L301.3570000000001 166.242L284.5870000000001 182.756L208.044 257.87S207.914 257.87 207.914 258C204.774 260.886 199.914 260.757 196.901 257.743C193.887 254.729 193.887 249.871 196.773 246.729C196.9 246.599 196.9 246.469 197.029 246.469L205.543 238.213L267.6730000000001 177.256L259.0130000000001 168.47L196.886 229.43L188.372 237.686H188.242C188.112 237.814 188.112 237.814 188.112 237.943C180.385 245.813 180.242 258.386 187.985 266.257C195.728 274.129 208.299 274.257 216.299 266.6570000000001L216.429 266.529L310.2850000000001 174.385C323.528 161.2700000000001 323.6550000000001 139.913 310.5420000000001 126.542C297.4280000000001 113.17 275.942 112.912 262.5720000000001 126.1420000000001C262.4420000000001 126.2700000000001 262.1720000000002 126.542 262.0420000000002 126.799L169.8990000000001 217.369L169.6420000000001 217.629C169.5120000000001 217.756 169.3850000000001 217.885 169.2420000000001 218.029L169.1120000000001 218.156C150.7560000000001 236.7700000000001 150.6280000000001 266.6560000000001 168.9850000000001 285.399C187.4710000000001 304.269 217.8710000000001 304.5420000000001 236.7550000000001 286.0560000000001L237.0130000000001 285.7990000000001L335.1860000000001 189.456L326.5290000000001 180.67L228.3570000000001 277.1430000000001H228.3430000000001z" />
    <glyph glyph-name="058.comment-filled"
      unicode="&#xEA3A;"
      horiz-adv-x="480" d="M107.887 361.957C65.03 361.957 30.287 327.214 30.287 284.3570000000001V135.457C30.287 99.414 54.801 69.257 88.087 60.487C82.587 44.357 70.257 26.8 46.53 8.843C40.373 4.129 48.758 -1.114 65.93 -1.114C92.4 -1.114 139.6 11.343 185.073 57.7429999999999H372.113C414.973 57.7429999999999 449.713 92.471 449.713 135.343V284.37C449.586 327.23 414.843 361.9700000000001 371.9860000000001 361.9700000000001L107.886 361.957z" />
    <glyph glyph-name="059.arrow-down__arrow-expand"
      unicode="&#xEA3B;"
      horiz-adv-x="480" d="M53.1005 296.1C73.5435 316.543 106.8435 316.543 127.2865 296.1L247.6165000000001 175.77L368.0715 296.1C388.5145 316.543 421.8145 316.543 442.2565 296.1C462.7005 275.657 462.7005 242.357 442.2565 221.914L284.8305000000001 64.486C264.3875000000001 44.043 231.0875000000001 44.043 210.6445 64.486L53.2165 221.914C42.8565 232.144 37.7435 245.514 37.7435 259.014C37.7735 272.371 42.8865 285.871 53.1005 296.1z" />
    <glyph glyph-name="060.arrow-up__arrow-collapse"
      unicode="&#xEA3C;"
      horiz-adv-x="480" d="M442.169 101.57C442.169 88.2 437.055 74.7 426.841 64.47C406.3980000000001 44.03 373.098 44.03 352.655 64.47L232.325 184.8L111.999 64.47C91.556 44.03 58.256 44.03 37.813 64.47C17.37 84.9140000000001 17.37 118.2140000000001 37.813 138.6570000000001L195.243 296.0870000000001C215.685 316.5290000000001 248.985 316.5290000000001 269.4270000000001 296.0870000000001L426.8570000000001 138.6570000000001C437.0870000000001 128.429 442.187 114.929 442.187 101.557L442.171 101.571z" />
    <glyph glyph-name="061.arrow-left__arrow-back__arrow-previous"
      unicode="&#xEA3D;"
      horiz-adv-x="480" d="M318.7085 389.914C332.0785 389.914 345.5785 384.8 355.8085000000001 374.586C376.2485000000001 354.1430000000001 376.2485000000001 320.843 355.8085000000001 300.4L235.4785 180.07L355.8084999999999 59.743C376.2485 39.3 376.2485 6 355.8084999999999 -14.443C335.3645 -34.886 302.0645 -34.886 281.6215 -14.443L124.1915 142.857C103.7495 163.3 103.7495 196.6 124.1915 217.043L281.6225 374.4700000000001C291.8505 384.7 305.3505 389.943 318.7225 389.943L318.7085 389.913z" />
    <glyph glyph-name="062.arrow-right__arrow-forward__arrow-next"
      unicode="&#xEA3E;"
      horiz-adv-x="480" d="M161.293 -29.914C147.923 -29.914 134.423 -24.8 124.193 -14.586C103.75 5.857 103.75 39.157 124.193 59.6L244.523 179.93L124.193 300.256C103.75 320.7 103.75 354 124.193 374.443C144.636 394.886 177.936 394.886 198.379 374.443L355.807 217.013C376.25 196.571 376.25 163.271 355.807 142.829L198.379 -14.6C188.149 -24.83 174.779 -29.93 161.279 -29.93L161.293 -29.914z" />
    <glyph glyph-name="063.caret-down__arrow-down__beaker-down"
      unicode="&#xEA3F;"
      horiz-adv-x="480" d="M449.656 271.56C449.656 264.468 447.0660000000001 258.322 441.883 253.124L258.434 69.678C253.252 64.496 247.107 61.905 239.998 61.905C232.888 61.905 226.744 64.495 221.562 69.678L38.118 253.124C32.934 258.307 30.344 264.452 30.344 271.56C30.344 278.67 32.934 284.815 38.118 289.997C43.3 295.18 49.445 297.771 56.554 297.771H423.446C430.539 297.771 436.686 295.1810000000001 441.883 289.9980000000001C447.079 284.8160000000001 449.67 278.67 449.655 271.562z" />
    <glyph glyph-name="064.caret-up__arrow-up__beaker-up"
      unicode="&#xEA40;"
      horiz-adv-x="480" d="M449.656 88.32C449.656 81.228 447.0660000000001 75.082 441.883 69.885C436.699 64.687 430.553 62.095 423.445 62.111H56.554C49.461 62.111 43.314 64.703 38.118 69.886C32.92 75.068 30.328 81.213 30.344 88.322C30.359 95.432 32.95 101.5769999999999 38.118 106.759L221.564 290.204C226.746 295.386 232.891 297.977 240 297.977C247.11 297.977 253.254 295.387 258.436 290.204L441.884 106.757C447.0640000000001 101.575 449.656 95.43 449.656 88.321z" />
    <glyph glyph-name="065.caret-left__arrow-left__beaker-left"
      unicode="&#xEA41;"
      horiz-adv-x="480" d="M357.9070000000001 363.796V-3.016C357.9070000000001 -10.108 355.3170000000001 -16.252 350.1370000000001 -21.449C344.9540000000001 -26.644 338.8100000000001 -29.235 331.703 -29.219C324.596 -29.204 318.453 -26.614 313.271 -21.449L129.865 161.958C124.685 167.14 122.093 173.284 122.093 180.391C122.093 187.498 124.683 193.641 129.865 198.823L313.271 382.228C318.451 387.408 324.596 390 331.703 390C338.8100000000001 390 344.953 387.4100000000001 350.136 382.228C355.3160000000001 377.048 357.906 370.903 357.906 363.796z" />
    <glyph glyph-name="066.caret-right__arrow-right__beaker-right"
      unicode="&#xEA42;"
      horiz-adv-x="480" d="M357.9075000000001 180.39C357.9075000000001 173.298 355.3175000000001 167.154 350.1375000000001 161.957L166.7285 -21.45C161.5485 -26.63 155.4035 -29.22 148.2965 -29.22C141.1895 -29.22 135.0465 -26.63 129.8645 -21.45C124.6845 -16.268 122.0925 -10.123 122.0925 -3.016V363.796C122.0925 370.886 124.6825 377.032 129.8645 382.228C135.0445 387.425 141.1895 390.015 148.2965 390C155.4035 389.985 161.5465 387.394 166.7285 382.228L350.1355000000001 198.822C355.3155000000001 193.642 357.9055 187.497 357.9055 180.39z" />
    <glyph glyph-name="067.unsorted"
      unicode="&#xEA43;"
      horiz-adv-x="480" d="M392.577 122.777C392.577 117.615 390.691 113.143 386.92 109.36L253.417 -24.143C249.647 -27.913 245.173 -29.8 240 -29.8S230.355 -27.9139999999999 226.583 -24.143L93.08 109.36C89.31 113.132 87.423 117.6040000000001 87.423 122.777C87.423 127.951 89.309 132.423 93.08 136.194C96.852 139.966 101.324 141.852 106.497 141.852H373.503C378.665 141.852 383.137 139.966 386.92 136.194C390.703 132.424 392.588 127.951 392.577 122.777zM392.577 237.223C392.577 232.061 390.691 227.588 386.92 223.806C383.1500000000001 220.023 378.6760000000001 218.136 373.5030000000001 218.148H106.497C101.335 218.148 96.863 220.034 93.08 223.806C89.298 227.576 87.412 232.049 87.423 237.223C87.433 242.396 89.32 246.868 93.08 250.64L226.583 384.1430000000001C230.355 387.913 234.827 389.8 240 389.8S249.646 387.914 253.417 384.1430000000001L386.92 250.64C390.69 246.868 392.577 242.396 392.577 237.223z" />
    </font>
</defs>
</svg>
